<?xml version="1.0" encoding="utf-8"?>
<!-- Generator: Adobe Illustrator 25.0.0, SVG Export Plug-In . SVG Version: 6.00 Build 0)  -->
<svg version="1.1" id="Layer_1" xmlns="http://www.w3.org/2000/svg" xmlns:xlink="http://www.w3.org/1999/xlink" x="0px" y="0px"
	 viewBox="0 0 540.3 482.7" style="enable-background:new 0 0 540.3 482.7;" xml:space="preserve">
<style type="text/css">
	.st0{fill-rule:evenodd;clip-rule:evenodd;fill:#FEC910;}
	.st1{fill-rule:evenodd;clip-rule:evenodd;fill:#FDA200;}
	.st2{fill-rule:evenodd;clip-rule:evenodd;fill:#555555;}
	.st3{fill-rule:evenodd;clip-rule:evenodd;fill:#FFFFFD;}
	.st4{fill-rule:evenodd;clip-rule:evenodd;fill:#7F8083;}
</style>
<g id="Layer_x0020_1">
	<g id="_1972603041424">
		<path class="st0" d="M219,47.2L202.1,47c0.1,25.7,1.8,80.1,12.2,104.8c3.4,8,14.4,10.4,1.9,13.6c-9.1,2.3-17.6,1.6-26-1.5
			c-28-10.5-24.8,4.4-32.8-1.1c-0.1-7.8,4.4,2.9,11-21.1c7.5-27.3,7.6-62.1,8.8-90.4c-3.2,3.2-2.3,9.5-5.2,19
			c-4.5,14.8-16.4,34.8-26.8,46.3c-26.1,28.9-37.9,70.1-19.5,107.8c6.4,13.1,10.4,19.4,20.2,28.8c11.8,11.3,10.5,11.9,27.9,20
			c20.9,9.7,33.1,6.5,38.8,10c14.1-6.1,25.4-8,40.8-21.4c9.1-7.8,19.5-21.8,24.4-32.6c12.9-28.9,11.4-66.8-5.6-91.4
			c-1.9-2.8-3.1-4.1-5-7l-16-20c-8.1-10.8-16.7-26-20.6-39.4c-2.1-7.5,0.2-12.3-5-19c-2-2.5,0-1.3-4.9-4.1l-1.3-0.7
			C219.5,47.4,219.2,47.3,219,47.2L219,47.2z"/>
		<path class="st1" d="M212.8,283.1c-5.7-3.5-17.9-0.3-38.8-10c-17.4-8.1-16.2-8.8-27.9-20c-9.9-9.4-13.8-15.7-20.2-28.8
			c-18.4-37.7-6.6-78.9,19.5-107.8c10.3-11.5,22.2-31.5,26.8-46.3c2.9-9.5,2-15.8,5.2-19l0-4.1L160,47.3c-6.6,5.1-8.7,5-10.1,15.8
			c-1.6,12.8-8.8,26.9-15.3,37.7c-8.5,14.4-22.9,25.9-33,47c-18.7,38.9-6.9,90.5,27.3,116.4c22.6,17.1,40.6,23.3,72,20.9
			C204.8,284.8,209.1,283.5,212.8,283.1L212.8,283.1z"/>
		<path class="st0" d="M196.6,47L183,47c0,19.6-0.9,40.6-3.1,60c-2.4,21.2-4.4,32.1-11.7,51.4c22.4-0.8,33.8,11.9,46.8,4.8
			c-1.9-3.4-4-4.9-6-10C198.7,126.3,196.4,74.8,196.6,47L196.6,47z"/>
		<path class="st2" d="M218.7,15.1c-2.9,1.1-55.5,1.1-58.4,0c-9.9,0.7-9.4,11.6-4.3,16c-5.5,0.1-9.1,3.3-8,9.9
			c1.1,6.1,5.1,5.9,12,6.3l17.2-0.2L183,47l13.6,0.1l5.5,0l16.9,0.2c7.1-0.1,10.8,0.6,12.4-5.8c0.6-2.2,0.7-4.1-0.7-6.8
			c-1.5-2.8-2.7-3.3-6.6-3.4c1.7-2.5,3.9-4.8,3-9.9C226.3,17.1,223.3,15.5,218.7,15.1L218.7,15.1z"/>
		<path class="st3" d="M202.1,47l-5.5,0c-0.2,27.8,2.1,79.3,12.4,106.1c2,5.2,4.1,6.6,6,10c-13,7.1-24.4-5.6-46.8-4.8
			c7.3-19.3,9.3-30.2,11.7-51.4c2.2-19.3,3.1-40.4,3.1-60l-5.7,0.1l0,4.1c-1.2,28.3-1.3,63-8.8,90.4c-6.6,24.1-11.1,13.4-11,21.1
			c8.1,5.5,4.9-9.3,32.8,1.1c8.3,3.1,16.9,3.9,26,1.5c12.5-3.2,1.5-5.7-1.9-13.6C203.9,127.1,202.2,72.7,202.1,47L202.1,47z"/>
		<path class="st1" d="M23,185.1c-6.5,0-23-4.1-23,4c0,4.8,8,5,13,5h36c6.1,0,13.2-9-2-9c-5.7,0-6.5-1.1-12-1.1
			C29.4,184,28.7,185.1,23,185.1L23,185.1z"/>
		<path class="st1" d="M332,310.1c0-4.7-14.9-17.4-18.8-21.3l-15.1-15c-4.6-3.4-3.6-0.7-7.2-0.7c-1.6,6.6-2.6,3.9,7.2,13.8
			C304,292.6,332,325.1,332,310.1L332,310.1z"/>
		<path class="st4" d="M160.3,15.1c2.9,1.1,55.5,1.1,58.4,0c-3.5-2.9-5.8-6.1-10.4-8.3C203.3,4.3,197,5.1,190,5.1
			C169.4,5.1,171.9,5.6,160.3,15.1L160.3,15.1z"/>
		<path class="st1" d="M380,188.1l-0.9-1.1c-0.9-0.8,0.4-0.4-1.7-1.3c-2.9-1.3-8.5-0.1-14-1c-8.7-1.3-11.5,0.4-19.4,0.4
			c-14.4,0-22.1-5.1-19,8c6.3,0,8.3,1,15,1h32C376.5,194.1,379,191.7,380,188.1L380,188.1z"/>
		<path class="st1" d="M194,370.1v-48c0-3.2-2.5-3.4-5-4c-1.7,1.1-4,2.2-4,5c0,11.6-1.2,40.5,1,50C186.5,373.2,194,376.5,194,370.1
			L194,370.1z"/>
		<path class="st1" d="M271,354.1c0-5.5-8.2-19.4-11-25c-5.3-10.5-8.3-22-14-22c-9.9,0,2.9,19.7,8.3,30.7c2.6,5.1,4.1,8.1,6.3,13.7
			C264.8,361.3,271,357.7,271,354.1L271,354.1z"/>
		<path class="st1" d="M132,311.1c0-3.3-2.4-4-5-4c-3.5,0-11.6,18.1-13.3,21.7c-8.9,17.8-12.9,18.8-10.7,28.3h6
			C111.2,352.9,132,315,132,311.1L132,311.1z"/>
		<path class="st1" d="M366,254.1c2-8.3,0.4-7.8-22.8-14.2c-4.6-1.3-22.7-7.8-26.2-7.8c-1.1,0-9,6.9,2.2,9.8
			c5.9,1.5,9.4,2.9,15.4,4.6C341.2,248.4,360.4,256.3,366,254.1L366,254.1z"/>
		<path class="st1" d="M63,236.1c0-8.2-7.6-3.6-12.1-2.1C44,236.4,10,246.6,10,250.1c0,2.7,0.5,2.8,1,5c3.4,0.8,3.5,1.1,6.8-0.1
			l20-7.1c2.1-0.7,4.1-1.3,6.8-2.2c3.5-1.2,3.4-1.6,6.4-2.6C54.7,241.9,63,240.4,63,236.1L63,236.1z"/>
		<path class="st1" d="M82,276.1c-5,0-21.3,15.3-26.3,19.7c-2.3,2-3.3,2.4-5.5,4.5c-2,1.8-2.4,2.6-4.7,4.3c-9.4,7-1.8,10.4-1.6,10.4
			c3.6,0,4.8-1.3,6.8-3.2l34.3-29.8C86.1,279.9,85.8,276.1,82,276.1L82,276.1z"/>
		<path class="st1" d="M329,71.1c-6.1,0-23.7,15.1-29.8,19.2c-5.8,4-8.2,4.6-8.2,8.8c0,9.9,14.1-1.8,14.7-2.3
			c4.2-3.2,25.6-17.1,26.8-20.4C333.5,73.5,332.1,71.1,329,71.1z"/>
		<path class="st1" d="M89,99.1c0-4.7-3.5-5.5-7.6-8.4C75,86.1,56.6,71.1,51,71.1c-1.5,0-8.2,2.9,0.7,9.3c4,2.9,6.9,5.3,10.9,8.1
			C69.8,93.5,89,110.3,89,99.1L89,99.1z"/>
		<path class="st1" d="M63,142.1c0-4.4-4-5.4-8.9-7.1c-20.5-7.3-37.1-19.2-37.1-7.9c0,4.5,13.1,8,19.6,10.4
			C45.6,141,63,151.5,63,142.1L63,142.1z"/>
		<path class="st1" d="M364,127.1c-3.4-6.4-4.7-5.6-23.1,1.9l-19.6,7.4c-7.3,3.1-4.6,8.8,0.8,8.8c2,0,19.1-6.4,22.3-7.7
			C355.7,132.9,360.5,133.7,364,127.1L364,127.1z"/>
	</g>
	<g id="_1972603048912">
		<path class="st0" d="M379.3,47.2L362.4,47c0.1,25.7,1.8,80.1,12.2,104.8c3.4,8,14.4,10.4,1.9,13.6c-9.1,2.3-17.6,1.6-26-1.5
			c-28-10.5-24.8,4.4-32.8-1.1c-0.1-7.8,4.4,2.9,11-21.1c7.5-27.3,7.6-62.1,8.8-90.4c-3.2,3.2-2.3,9.5-5.2,19
			c-4.5,14.8-16.4,34.8-26.8,46.3c-26.1,28.9-37.9,70.1-19.5,107.8c6.4,13.1,10.4,19.4,20.2,28.8c11.8,11.3,10.5,11.9,27.9,20
			c20.9,9.7,33.1,6.5,38.8,10c14.1-6.1,25.4-8,40.8-21.4c9.1-7.8,19.5-21.8,24.4-32.6c12.9-28.9,11.4-66.8-5.6-91.4
			c-1.9-2.8-3.1-4.1-5-7l-16-20c-8.1-10.8-16.7-26-20.6-39.4c-2.1-7.5,0.2-12.3-5-19c-2-2.5,0-1.3-4.9-4.1l-1.3-0.7
			C379.8,47.4,379.5,47.3,379.3,47.2L379.3,47.2z"/>
		<path class="st1" d="M373.1,283.1c-5.7-3.5-17.9-0.3-38.8-10c-17.4-8.1-16.2-8.8-27.9-20c-9.9-9.4-13.8-15.7-20.2-28.8
			c-18.4-37.7-6.6-78.9,19.5-107.8c10.3-11.5,22.2-31.5,26.8-46.3c2.9-9.5,2-15.8,5.2-19l0-4.1l-17.2,0.2c-6.6,5.1-8.7,5-10.1,15.8
			c-1.6,12.8-8.8,26.9-15.3,37.7c-8.5,14.4-22.9,25.9-33,47c-18.7,38.9-6.9,90.5,27.3,116.4c22.6,17.1,40.6,23.3,72,20.9
			C365.1,284.8,369.4,283.5,373.1,283.1L373.1,283.1z"/>
		<path class="st0" d="M356.9,47L343.2,47c0,19.6-0.9,40.6-3.1,60c-2.4,21.2-4.4,32.1-11.7,51.4c22.4-0.8,33.8,11.9,46.8,4.8
			c-1.9-3.4-4-4.9-6-10C358.9,126.3,356.7,74.8,356.9,47L356.9,47z"/>
		<path class="st2" d="M379,15.1c-2.9,1.1-55.5,1.1-58.4,0c-9.9,0.7-9.4,11.6-4.3,16c-5.5,0.1-9.1,3.3-8,9.9c1.1,6.1,5.1,5.9,12,6.3
			l17.2-0.2l5.7-0.1l13.6,0.1l5.5,0l16.9,0.2c7.1-0.1,10.8,0.6,12.4-5.8c0.6-2.2,0.7-4.1-0.7-6.8c-1.5-2.8-2.7-3.3-6.6-3.4
			c1.7-2.5,3.9-4.8,3-9.9C386.6,17.1,383.6,15.5,379,15.1L379,15.1z"/>
		<path class="st3" d="M362.4,47l-5.5,0c-0.2,27.8,2.1,79.3,12.4,106.1c2,5.2,4.1,6.6,6,10c-13,7.1-24.4-5.6-46.8-4.8
			c7.3-19.3,9.3-30.2,11.7-51.4c2.2-19.3,3.1-40.4,3.1-60l-5.7,0.1l0,4.1c-1.2,28.3-1.3,63-8.8,90.4c-6.6,24.1-11.1,13.4-11,21.1
			c8.1,5.5,4.9-9.3,32.8,1.1c8.3,3.1,16.9,3.9,26,1.5c12.5-3.2,1.5-5.7-1.9-13.6C364.2,127.1,362.5,72.7,362.4,47L362.4,47z"/>
		<path class="st1" d="M183.3,185.1c-6.5,0-23-4.1-23,4c0,4.8,8,5,13,5h36c6.1,0,13.2-9-2-9c-5.7,0-6.5-1.1-12-1.1
			C189.7,184,189,185.1,183.3,185.1L183.3,185.1z"/>
		<path class="st1" d="M492.3,310.1c0-4.7-14.9-17.4-18.8-21.3l-15.1-15c-4.6-3.4-3.6-0.7-7.2-0.7c-1.6,6.6-2.6,3.9,7.2,13.8
			C464.3,292.6,492.3,325.1,492.3,310.1L492.3,310.1z"/>
		<path class="st4" d="M320.6,15.1c2.9,1.1,55.5,1.1,58.4,0c-3.5-2.9-5.8-6.1-10.4-8.3c-5.1-2.4-11.3-1.7-18.3-1.7
			C329.7,5.1,332.1,5.6,320.6,15.1L320.6,15.1z"/>
		<path class="st1" d="M540.3,188.1l-0.9-1.1c-0.9-0.8,0.4-0.4-1.7-1.3c-2.9-1.3-8.5-0.1-14-1c-8.7-1.3-11.5,0.4-19.4,0.4
			c-14.4,0-22.1-5.1-19,8c6.3,0,8.3,1,15,1h32C536.8,194.1,539.3,191.7,540.3,188.1L540.3,188.1z"/>
		<path class="st1" d="M354.3,370.1v-48c0-3.2-2.5-3.4-5-4c-1.7,1.1-4,2.2-4,5c0,11.6-1.2,40.5,1,50
			C346.8,373.2,354.3,376.5,354.3,370.1L354.3,370.1z"/>
		<path class="st1" d="M431.3,354.1c0-5.5-8.2-19.4-11-25c-5.3-10.5-8.3-22-14-22c-9.9,0,2.9,19.7,8.3,30.7
			c2.6,5.1,4.1,8.1,6.3,13.7C425.1,361.3,431.3,357.7,431.3,354.1L431.3,354.1z"/>
		<path class="st1" d="M292.3,311.1c0-3.3-2.4-4-5-4c-3.5,0-11.6,18.1-13.3,21.7c-8.9,17.8-12.9,18.8-10.7,28.3h6
			C271.5,352.9,292.3,315,292.3,311.1L292.3,311.1z"/>
		<path class="st1" d="M526.3,254.1c2-8.3,0.4-7.8-22.8-14.2c-4.6-1.3-22.7-7.8-26.2-7.8c-1.1,0-9,6.9,2.2,9.8
			c5.9,1.5,9.4,2.9,15.4,4.6C501.5,248.4,520.6,256.3,526.3,254.1z"/>
		<path class="st1" d="M223.3,236.1c0-8.2-7.6-3.6-12.1-2.1c-6.9,2.4-40.9,12.6-40.9,16.1c0,2.7,0.5,2.8,1,5
			c3.4,0.8,3.5,1.1,6.8-0.1l20-7.1c2.1-0.7,4.1-1.3,6.8-2.2c3.5-1.2,3.4-1.6,6.4-2.6C215,241.9,223.3,240.4,223.3,236.1L223.3,236.1
			z"/>
		<path class="st1" d="M242.3,276.1c-5,0-21.3,15.3-26.3,19.7c-2.3,2-3.3,2.4-5.5,4.5c-2,1.8-2.4,2.6-4.7,4.3
			c-9.4,7-1.8,10.4-1.6,10.4c3.6,0,4.8-1.3,6.8-3.2l34.3-29.8C246.4,279.9,246.1,276.1,242.3,276.1L242.3,276.1z"/>
		<path class="st1" d="M489.3,71.1c-6.1,0-23.7,15.1-29.8,19.2c-5.8,4-8.2,4.6-8.2,8.8c0,9.9,14.1-1.8,14.7-2.3
			c4.2-3.2,25.6-17.1,26.8-20.4C493.8,73.5,492.4,71.1,489.3,71.1z"/>
		<path class="st1" d="M249.3,99.1c0-4.7-3.5-5.5-7.6-8.4c-6.4-4.6-24.8-19.6-30.4-19.6c-1.5,0-8.2,2.9,0.7,9.3
			c4,2.9,6.9,5.3,10.9,8.1C230,93.5,249.3,110.3,249.3,99.1L249.3,99.1z"/>
		<path class="st1" d="M223.3,142.1c0-4.4-4-5.4-8.9-7.1c-20.5-7.3-37.1-19.2-37.1-7.9c0,4.5,13.1,8,19.6,10.4
			C205.9,141,223.3,151.5,223.3,142.1L223.3,142.1z"/>
		<path class="st1" d="M524.3,127.1c-3.4-6.4-4.7-5.6-23.1,1.9l-19.6,7.4c-7.3,3.1-4.6,8.8,0.8,8.8c2,0,19.1-6.4,22.3-7.7
			C516,132.9,520.8,133.7,524.3,127.1L524.3,127.1z"/>
	</g>
	<g id="_1972603059536">
		<path class="st0" d="M296.6,155.9l-16.9-0.2c0.1,25.7,1.8,80.1,12.2,104.8c3.4,8,14.4,10.4,1.9,13.6c-9.1,2.3-17.6,1.6-26-1.5
			c-28-10.5-24.8,4.4-32.8-1.1c-0.1-7.8,4.4,2.9,11-21.1c7.5-27.3,7.6-62.1,8.8-90.4c-3.2,3.2-2.3,9.5-5.2,19
			c-4.5,14.8-16.4,34.8-26.8,46.3c-26.1,28.9-37.9,70.1-19.5,107.8c6.4,13.1,10.4,19.4,20.2,28.8c11.8,11.3,10.5,11.9,27.9,20
			c20.9,9.7,33.1,6.5,38.8,10c14.1-6.1,25.4-8,40.8-21.4c9.1-7.8,19.5-21.8,24.4-32.6c12.9-28.9,11.4-66.8-5.6-91.4
			c-1.9-2.8-3.1-4.1-5-7l-16-20c-8.1-10.8-16.7-26-20.6-39.4c-2.1-7.5,0.2-12.3-5-19c-2-2.5,0-1.3-4.9-4.1l-1.3-0.7
			C297.1,156.1,296.8,156,296.6,155.9L296.6,155.9z"/>
		<path class="st1" d="M290.4,391.8c-5.7-3.5-17.9-0.3-38.8-10c-17.4-8.1-16.2-8.8-27.9-20c-9.9-9.4-13.8-15.7-20.2-28.8
			c-18.4-37.7-6.6-78.9,19.5-107.8c10.3-11.5,22.2-31.5,26.8-46.3c2.9-9.5,2-15.8,5.2-19l0-4.1l-17.2,0.2c-6.6,5.1-8.7,5-10.1,15.8
			c-1.6,12.8-8.8,26.9-15.3,37.7c-8.5,14.4-22.9,25.9-33,47c-18.7,38.9-6.9,90.5,27.3,116.4c22.6,17.1,40.6,23.3,72,20.9
			C282.4,393.5,286.7,392.2,290.4,391.8L290.4,391.8z"/>
		<path class="st0" d="M274.2,155.7l-13.6-0.1c0,19.6-0.9,40.6-3.1,60c-2.4,21.2-4.4,32.1-11.7,51.4c22.4-0.8,33.8,11.9,46.8,4.8
			c-1.9-3.4-4-4.9-6-10C276.3,235,274,183.5,274.2,155.7L274.2,155.7z"/>
		<path class="st2" d="M296.3,123.8c-2.9,1.1-55.5,1.1-58.4,0c-9.9,0.7-9.4,11.6-4.3,16c-5.5,0.1-9.1,3.3-8,9.9
			c1.1,6.1,5.1,5.9,12,6.3l17.2-0.2l5.7-0.1l13.6,0.1l5.5,0l16.9,0.2c7.1-0.1,10.8,0.6,12.4-5.8c0.6-2.2,0.7-4.1-0.7-6.8
			c-1.5-2.8-2.7-3.3-6.6-3.4c1.7-2.5,3.9-4.8,3-9.9C303.9,125.8,300.9,124.2,296.3,123.8L296.3,123.8z"/>
		<path class="st3" d="M279.8,155.7l-5.5,0c-0.2,27.8,2.1,79.3,12.4,106.1c2,5.2,4.1,6.6,6,10c-13,7.1-24.4-5.6-46.8-4.8
			c7.3-19.3,9.3-30.2,11.7-51.4c2.2-19.3,3.1-40.4,3.1-60l-5.7,0.1l0,4.1c-1.2,28.3-1.3,63-8.8,90.4c-6.6,24.1-11.1,13.4-11,21.1
			c8.1,5.5,4.9-9.3,32.8,1.1c8.3,3.1,16.9,3.9,26,1.5c12.5-3.2,1.5-5.7-1.9-13.6C281.5,235.8,279.8,181.4,279.8,155.7L279.8,155.7z"
			/>
		<path class="st1" d="M100.6,293.8c-6.5,0-23-4.1-23,4c0,4.8,8,5,13,5h36c6.1,0,13.2-9-2-9c-5.7,0-6.5-1.1-12-1.1
			C107.1,292.7,106.3,293.8,100.6,293.8L100.6,293.8z"/>
		<path class="st1" d="M409.6,418.8c0-4.7-14.9-17.4-18.8-21.3l-15.1-15c-4.6-3.4-3.6-0.7-7.2-0.7c-1.6,6.6-2.6,3.9,7.2,13.8
			C381.6,401.3,409.6,433.8,409.6,418.8L409.6,418.8z"/>
		<path class="st4" d="M237.9,123.8c2.9,1.1,55.5,1.1,58.4,0c-3.5-2.9-5.8-6.1-10.4-8.3c-5.1-2.4-11.3-1.7-18.3-1.7
			C247,113.8,249.5,114.3,237.9,123.8L237.9,123.8z"/>
		<path class="st1" d="M457.6,296.8l-0.9-1.1c-0.9-0.8,0.4-0.4-1.7-1.3c-2.9-1.3-8.5-0.1-14-1c-8.7-1.3-11.5,0.4-19.4,0.4
			c-14.4,0-22.1-5.1-19,8c6.3,0,8.3,1,15,1h32C454.1,302.8,456.7,300.4,457.6,296.8L457.6,296.8z"/>
		<path class="st1" d="M271.6,478.8v-48c0-3.2-2.5-3.4-5-4c-1.7,1.1-4,2.2-4,5c0,11.6-1.2,40.5,1,50
			C264.1,481.9,271.6,485.2,271.6,478.8L271.6,478.8z"/>
		<path class="st1" d="M348.6,462.8c0-5.5-8.2-19.4-11-25c-5.3-10.5-8.3-22-14-22c-9.9,0,2.9,19.7,8.3,30.7
			c2.6,5.1,4.1,8.1,6.3,13.7C342.4,470,348.6,466.4,348.6,462.8L348.6,462.8z"/>
		<path class="st1" d="M209.6,419.8c0-3.3-2.4-4-5-4c-3.5,0-11.6,18.1-13.3,21.7c-8.9,17.8-12.9,18.8-10.7,28.3h6
			C188.8,461.6,209.6,423.7,209.6,419.8L209.6,419.8z"/>
		<path class="st1" d="M443.6,362.8c2-8.3,0.4-7.8-22.8-14.2c-4.6-1.3-22.7-7.8-26.2-7.8c-1.1,0-9,6.9,2.2,9.8
			c5.9,1.5,9.4,2.9,15.4,4.6C418.8,357.1,438,365,443.6,362.8L443.6,362.8z"/>
		<path class="st1" d="M140.6,344.8c0-8.2-7.6-3.6-12.1-2.1c-6.9,2.4-40.9,12.6-40.9,16.1c0,2.7,0.5,2.8,1,5
			c3.4,0.8,3.5,1.1,6.8-0.1l20-7.1c2.1-0.7,4.1-1.3,6.8-2.2c3.5-1.2,3.4-1.6,6.4-2.6C132.4,350.6,140.6,349.1,140.6,344.8
			L140.6,344.8z"/>
		<path class="st1" d="M159.6,384.8c-5,0-21.3,15.3-26.3,19.7c-2.3,2-3.3,2.4-5.5,4.5c-2,1.8-2.4,2.6-4.7,4.3
			c-9.4,7-1.8,10.4-1.6,10.4c3.6,0,4.8-1.3,6.8-3.2l34.3-29.8C163.7,388.6,163.4,384.8,159.6,384.8L159.6,384.8z"/>
		<path class="st1" d="M406.6,179.8c-6.1,0-23.7,15.1-29.8,19.2c-5.8,4-8.2,4.6-8.2,8.8c0,9.9,14.1-1.8,14.7-2.3
			c4.2-3.2,25.6-17.1,26.8-20.4C411.1,182.2,409.7,179.8,406.6,179.8z"/>
		<path class="st1" d="M166.6,207.8c0-4.7-3.5-5.5-7.6-8.4c-6.4-4.6-24.8-19.6-30.4-19.6c-1.5,0-8.2,2.9,0.7,9.3
			c4,2.9,6.9,5.3,10.9,8.1C147.4,202.2,166.6,219,166.6,207.8L166.6,207.8z"/>
		<path class="st1" d="M140.6,250.8c0-4.4-4-5.4-8.9-7.1c-20.5-7.3-37.1-19.2-37.1-7.9c0,4.5,13.1,8,19.6,10.4
			C123.2,249.7,140.6,260.2,140.6,250.8L140.6,250.8z"/>
		<path class="st1" d="M441.6,235.8c-3.4-6.4-4.7-5.6-23.1,1.9l-19.6,7.4c-7.3,3.1-4.6,8.8,0.8,8.8c2,0,19.1-6.4,22.3-7.7
			C433.4,241.6,438.2,242.4,441.6,235.8L441.6,235.8z"/>
	</g>
</g>
</svg>
