<?xml version="1.0" encoding="utf-8"?>
<!-- Generator: Adobe Illustrator 25.0.0, SVG Export Plug-In . SVG Version: 6.00 Build 0)  -->
<svg version="1.1" id="Layer_1" xmlns="http://www.w3.org/2000/svg" xmlns:xlink="http://www.w3.org/1999/xlink" x="0px" y="0px"
	 viewBox="0 0 539.1 486.5" style="enable-background:new 0 0 539.1 486.5;" xml:space="preserve">
<style type="text/css">
	.st0{fill-rule:evenodd;clip-rule:evenodd;fill:#C4BCB0;}
	.st1{fill-rule:evenodd;clip-rule:evenodd;fill:#A1998E;}
	.st2{fill-rule:evenodd;clip-rule:evenodd;fill:#555555;}
	.st3{fill-rule:evenodd;clip-rule:evenodd;fill:#FFFFFD;}
	.st4{fill-rule:evenodd;clip-rule:evenodd;fill:#808185;}
	.st5{fill:none;}
</style>
<g id="Layer_x0020_1">
	<g id="_1971530014336">
		<path class="st0" d="M217,51.2L200,51c0.8,27.1,1.6,79.9,12.7,105.5c4.5,10.5,6.1,2.4,7.4,9.7c-8.5,11.5-37.7-1.9-48-2
			c-11.2-0.1-8.3,4.7-15.5,3.6c-1-7.1,4.4-1.5,10-22.1c2.5-9,3.9-18.2,5.1-27.9c2.8-21.5,2.4-40.8,3.8-62.5
			c-2.8,2.4-1.8,2.1-2.8,8.4c-2.8,17.6-17.1,44-27.3,54.7c-33.8,35.8-39.1,75.5-16.4,119.9l14.9,20.1c3.1,3.4,2.4,1.3,5.9,6.1
			c4.3,5.8,6.9,6.8,14.7,9.3c8.4,2.7,13.8,7,25.5,9.6l6.8,2.3c14.1-0.8,2.9,1.7,11.4,0.8c5.4,1.3,20.5-5.6,25.8-8.5l16.8-11.2
			c0.2-0.2,0.9-0.7,1.1-0.9c23.1-20,37.6-54.3,31.7-90c-2.8-16.9-12.2-35.8-23.1-47.9c-9.8-10.9-23.7-30.7-28.4-43.6
			c-7.3-20.2-1.6-25.6-12.9-32L217,51.2L217,51.2z"/>
		<path class="st1" d="M208,286.5c-8.4,0.9,2.7-1.6-11.4-0.8l-6.8-2.3c-11.7-2.6-17.1-6.9-25.5-9.6c-7.7-2.5-10.4-3.5-14.7-9.3
			c-3.5-4.8-2.8-2.7-5.9-6.1l-14.9-20.1c-22.6-44.4-17.4-84.1,16.4-119.9c10.1-10.7,24.5-37.2,27.3-54.7c1-6.3,0-6,2.8-8.4l-0.2-4.3
			L158,51l-3.4,2.7c-2.5,1.8-1.9,0.9-3.7,3.3c-1.9,2.6-2.4,5.6-3,10c-1.1,9.2-3.4,12.9-6.3,20.7c-2,5.5-6,12.1-9,17
			c-8.5,14.4-22.9,25.9-33,47c-7.2,15-8.6,27.2-8.7,44.4c-0.3,49.3,45.2,93.2,92,93C188.4,289.1,203.8,290.9,208,286.5L208,286.5z"
			/>
		<path class="st0" d="M194.6,50.8L180.9,51c0.7,23.3-2.2,64-7.3,87.7c-2.1,9.8-4.7,15.6-7.4,23.8c20.5-1.7,33.7,11.9,47,4.7
			c-1.4-2.4-2.2-2.5-3.9-5.3c-6.3-10.8-9.7-34.7-11.3-46.8C195.5,95.8,194.2,71,194.6,50.8L194.6,50.8z"/>
		<path class="st2" d="M216,19.6l-57,0c-8.9-1.5-10.3,10.4-6.1,14.7l1.1,0.9c-10.3,0.2-14,16.8,4,15.9l17.2,0l5.7,0.1l13.8-0.2
			L200,51l17,0.2c7.1-0.2,10.8,0.6,12.4-5.8c1.2-4.7-0.2-10.1-7.4-10.3c1.7-2.5,4.2-5.5,2.8-10.7C223.9,21,220.7,18.9,216,19.6
			L216,19.6z"/>
		<path class="st3" d="M200,51l-5.3-0.1c-0.5,20.1,0.9,44.9,3.4,64.2c1.6,12.1,5,36.1,11.3,46.8c1.6,2.8,2.4,2.9,3.9,5.3
			c-13.4,7.2-26.5-6.4-47-4.7c2.8-8.2,5.3-13.9,7.4-23.8c5.1-23.6,8-64.4,7.3-87.7l-5.7-0.1l0.2,4.3c-1.4,21.7-1,41-3.8,62.5
			c-1.3,9.7-2.7,18.8-5.1,27.9c-5.6,20.6-11,15-10,22.1c7.3,1.2,4.3-3.7,15.5-3.6c10.3,0.1,39.6,13.5,48,2c-1.2-7.2-2.8,0.8-7.4-9.7
			C201.5,130.9,200.8,78.1,200,51L200,51z"/>
		<path class="st4" d="M159,19.6l57,0c-5.3-10.2-13-10.4-28-10.4c-5.9,0-13.5-0.8-17.9,1.1C167,11.6,160.5,16.7,159,19.6L159,19.6z"
			/>
	</g>
	<g id="_1971530014784">
		<path class="st0" d="M378.2,51.2l-17-0.2c0.8,27.1,1.6,79.9,12.7,105.5c4.5,10.5,6.1,2.4,7.4,9.7c-8.5,11.5-37.7-1.9-48-2
			c-11.2-0.1-8.3,4.7-15.5,3.6c-1-7.1,4.4-1.5,10-22.1c2.5-9,3.9-18.2,5.1-27.9c2.8-21.5,2.4-40.8,3.8-62.5
			c-2.8,2.4-1.8,2.1-2.8,8.4c-2.8,17.6-17.1,44-27.3,54.7c-33.8,35.8-39.1,75.5-16.4,119.9l14.9,20.1c3.1,3.4,2.4,1.3,5.9,6.1
			c4.3,5.8,6.9,6.8,14.7,9.3c8.4,2.7,13.8,7,25.5,9.6l6.8,2.3c14.1-0.8,2.9,1.7,11.4,0.8c5.4,1.3,20.5-5.6,25.8-8.5l16.8-11.2
			c0.2-0.2,0.9-0.7,1.1-0.9c23.1-20,37.6-54.3,31.7-90c-2.8-16.9-12.2-35.8-23.1-47.9c-9.8-10.9-23.7-30.7-28.4-43.6
			c-7.3-20.2-1.6-25.6-12.9-32L378.2,51.2L378.2,51.2z"/>
		<path class="st1" d="M369.2,286.5c-8.4,0.9,2.7-1.6-11.4-0.8l-6.8-2.3c-11.7-2.6-17.1-6.9-25.5-9.6c-7.7-2.5-10.4-3.5-14.7-9.3
			c-3.5-4.8-2.8-2.7-5.9-6.1L290,238.3c-22.6-44.4-17.4-84.1,16.4-119.9c10.1-10.7,24.5-37.2,27.3-54.7c1-6.3,0-6,2.8-8.4l-0.2-4.3
			l-17.2,0l-3.4,2.7c-2.5,1.8-1.9,0.9-3.7,3.3c-1.9,2.6-2.4,5.6-3,10c-1.1,9.2-3.4,12.9-6.3,20.7c-2,5.5-6,12.1-9,17
			c-8.5,14.4-22.9,25.9-33,47c-7.2,15-8.6,27.2-8.7,44.4c-0.3,49.3,45.2,93.2,92,93C349.6,289.1,365,290.9,369.2,286.5L369.2,286.5z
			"/>
		<path class="st0" d="M355.8,50.8L342.1,51c0.7,23.3-2.2,64-7.3,87.7c-2.1,9.8-4.7,15.6-7.4,23.8c20.5-1.7,33.7,11.9,47,4.7
			c-1.4-2.4-2.2-2.5-3.9-5.3c-6.3-10.8-9.7-34.7-11.3-46.8C356.7,95.8,355.4,71,355.8,50.8z"/>
		<path class="st2" d="M377.2,19.6l-57,0c-8.9-1.5-10.3,10.4-6.1,14.7l1.1,0.9c-10.3,0.2-14,16.8,4,15.9l17.2,0l5.7,0.1l13.8-0.2
			l5.3,0.1l17,0.2c7.1-0.2,10.8,0.6,12.4-5.8c1.2-4.7-0.2-10.1-7.4-10.3c1.7-2.5,4.2-5.5,2.8-10.7C385.1,21,381.9,18.9,377.2,19.6
			L377.2,19.6z"/>
		<path class="st3" d="M361.2,51l-5.3-0.1c-0.5,20.1,0.9,44.9,3.4,64.2c1.6,12.1,5,36.1,11.3,46.8c1.6,2.8,2.4,2.9,3.9,5.3
			c-13.4,7.2-26.5-6.4-47-4.7c2.8-8.2,5.3-13.9,7.4-23.8c5.1-23.6,8-64.4,7.3-87.7l-5.7-0.1l0.2,4.3c-1.4,21.7-1,41-3.8,62.5
			c-1.3,9.7-2.7,18.8-5.1,27.9c-5.6,20.6-11,15-10,22.1c7.3,1.2,4.3-3.7,15.5-3.6c10.3,0.1,39.6,13.5,48,2c-1.2-7.2-2.8,0.8-7.4-9.7
			C362.8,130.9,362,78.1,361.2,51L361.2,51z"/>
		<path class="st4" d="M320.2,19.6l57,0c-5.3-10.2-13-10.4-28-10.4c-5.9,0-13.5-0.8-17.9,1.1C328.2,11.6,321.7,16.7,320.2,19.6z"/>
	</g>
	<g id="_1971530018144">
		<path class="st0" d="M296,163.6l-17-0.2c0.8,27.1,1.6,79.9,12.7,105.5c4.5,10.5,6.1,2.4,7.4,9.7c-8.5,11.5-37.7-1.9-48-2
			c-11.2-0.1-8.3,4.7-15.5,3.6c-1-7.1,4.4-1.5,10-22.1c2.5-9,3.9-18.2,5.1-27.9c2.8-21.5,2.4-40.8,3.8-62.5
			c-2.8,2.4-1.8,2.1-2.8,8.4c-2.8,17.6-17.1,44-27.3,54.7c-33.8,35.8-39.1,75.5-16.4,119.9l14.9,20.1c3.1,3.4,2.4,1.3,5.9,6.1
			c4.3,5.8,6.9,6.8,14.7,9.3c8.4,2.7,13.8,7,25.5,9.6l6.8,2.3c14.1-0.8,2.9,1.7,11.4,0.8c5.4,1.3,20.5-5.6,25.8-8.5l16.8-11.2
			c0.2-0.2,0.9-0.7,1.1-0.9c23.1-20,37.6-54.3,31.7-90c-2.8-16.9-12.2-35.8-23.1-47.9c-9.8-10.9-23.7-30.7-28.4-43.6
			c-7.3-20.2-1.6-25.6-12.9-32L296,163.6L296,163.6z"/>
		<path class="st1" d="M287,398.8c-8.4,0.9,2.7-1.6-11.4-0.8l-6.8-2.3c-11.7-2.6-17.1-6.9-25.5-9.6c-7.7-2.5-10.4-3.5-14.7-9.3
			c-3.5-4.8-2.8-2.7-5.9-6.1l-14.9-20.1c-22.6-44.4-17.4-84.1,16.4-119.9c10.1-10.7,24.5-37.2,27.3-54.7c1-6.3,0-6,2.8-8.4l-0.2-4.3
			l-17.2,0l-3.4,2.7c-2.5,1.8-1.9,0.9-3.7,3.3c-1.9,2.6-2.4,5.6-3,10c-1.1,9.2-3.4,12.9-6.3,20.7c-2,5.5-6,12.1-9,17
			c-8.5,14.4-22.9,25.9-33,47c-7.2,15-8.6,27.2-8.7,44.4c-0.3,49.3,45.2,93.2,92,93C267.4,401.5,282.8,403.3,287,398.8L287,398.8z"
			/>
		<path class="st0" d="M273.7,163.2l-13.8,0.2c0.7,23.3-2.2,64-7.3,87.7c-2.1,9.8-4.7,15.6-7.4,23.8c20.5-1.7,33.7,11.9,47,4.7
			c-1.4-2.4-2.2-2.5-3.9-5.3c-6.3-10.8-9.7-34.7-11.3-46.8C274.5,208.1,273.2,183.3,273.7,163.2L273.7,163.2z"/>
		<path class="st2" d="M295,131.9l-57,0c-8.9-1.5-10.3,10.4-6.1,14.7l1.1,0.9c-10.3,0.2-14,16.8,4,15.9l17.2,0l5.7,0.1l13.8-0.2
			l5.3,0.1l17,0.2c7.1-0.2,10.8,0.6,12.4-5.8c1.2-4.7-0.2-10.1-7.4-10.3c1.7-2.5,4.2-5.5,2.8-10.7
			C302.9,133.4,299.7,131.2,295,131.9L295,131.9z"/>
		<path class="st3" d="M279,163.3l-5.3-0.1c-0.5,20.1,0.9,44.9,3.4,64.2c1.6,12.1,5,36.1,11.3,46.8c1.6,2.8,2.4,2.9,3.9,5.3
			c-13.4,7.2-26.5-6.4-47-4.7c2.8-8.2,5.3-13.9,7.4-23.8c5.1-23.6,8-64.4,7.3-87.7l-5.7-0.1l0.2,4.3c-1.4,21.7-1,41-3.8,62.5
			c-1.3,9.7-2.7,18.8-5.1,27.9c-5.6,20.6-11,15-10,22.1c7.3,1.2,4.3-3.7,15.5-3.6c10.3,0.1,39.6,13.5,48,2c-1.2-7.2-2.8,0.8-7.4-9.7
			C280.6,243.3,279.8,190.4,279,163.3L279,163.3z"/>
		<path class="st4" d="M238,131.9l57,0c-5.3-10.2-13-10.4-28-10.4c-5.9,0-13.5-0.8-17.9,1.1C246,123.9,239.6,129,238,131.9
			L238,131.9z"/>
	</g>
	<polygon class="st5" points="256.8,476.9 272.7,476.9 272.7,486.5 256.8,486.5 	"/>
	<polygon class="st5" points="529.4,189 539.1,189 539.1,198.8 529.4,198.8 	"/>
	<polygon class="st5" points="0,189 10.1,189 10.1,198.2 0,198.2 	"/>
</g>
</svg>
