<?xml version="1.0" encoding="utf-8"?>
<!-- Generator: Adobe Illustrator 25.0.0, SVG Export Plug-In . SVG Version: 6.00 Build 0)  -->
<svg version="1.1" id="Layer_1" xmlns="http://www.w3.org/2000/svg" xmlns:xlink="http://www.w3.org/1999/xlink" x="0px" y="0px"
	 viewBox="0 0 2100.2 1972.6" style="enable-background:new 0 0 2100.2 1972.6;" xml:space="preserve">
<style type="text/css">
	.st0{fill-rule:evenodd;clip-rule:evenodd;fill:#FEFEFE;}
	.st1{fill-rule:evenodd;clip-rule:evenodd;fill:#00A0E3;}
	.st2{fill-rule:evenodd;clip-rule:evenodd;fill:#302F2D;}
	.st3{fill-rule:evenodd;clip-rule:evenodd;fill:#D9D9D9;}
	.st4{fill-rule:evenodd;clip-rule:evenodd;fill:#403F3E;}
	.st5{fill-rule:evenodd;clip-rule:evenodd;fill:#B2B1B1;}
	.st6{fill-rule:evenodd;clip-rule:evenodd;fill:#8D8D8C;}
	.st7{fill-rule:evenodd;clip-rule:evenodd;fill:#C6C6C6;}
	.st8{fill-rule:evenodd;clip-rule:evenodd;fill:#797676;}
	.st9{fill-rule:evenodd;clip-rule:evenodd;fill:#EBECEC;}
	.st10{fill-rule:evenodd;clip-rule:evenodd;fill:#8A7669;}
	.st11{fill-rule:evenodd;clip-rule:evenodd;fill:#9E8576;}
	.st12{fill-rule:evenodd;clip-rule:evenodd;fill:#A65429;}
	.st13{fill-rule:evenodd;clip-rule:evenodd;fill:#C3A99B;}
	.st14{fill-rule:evenodd;clip-rule:evenodd;fill:#CC6F3C;}
	.st15{fill-rule:evenodd;clip-rule:evenodd;fill:#FEFEFE;stroke:#B2B3B3;stroke-width:0.7086;stroke-miterlimit:10;}
	.st16{fill-rule:evenodd;clip-rule:evenodd;fill:#1397D6;}
	.st17{fill-rule:evenodd;clip-rule:evenodd;fill:#EE9261;}
	.st18{fill:none;stroke:#2B2A29;stroke-width:0.5668;stroke-miterlimit:10;}
	.st19{fill-rule:evenodd;clip-rule:evenodd;fill:#9D9E9E;}
	.st20{fill-rule:evenodd;clip-rule:evenodd;fill:#9D9E9E;stroke:#2B2A29;stroke-width:0.5668;stroke-miterlimit:10;}
	.st21{fill-rule:evenodd;clip-rule:evenodd;fill:#FEFEFE;stroke:#434242;stroke-width:0.5668;stroke-miterlimit:10;}
	.st22{fill-rule:evenodd;clip-rule:evenodd;fill:#C5C6C6;}
	.st23{fill-rule:evenodd;clip-rule:evenodd;fill:#C5C6C6;stroke:#2B2A29;stroke-width:0.5668;stroke-miterlimit:10;}
	.st24{fill-rule:evenodd;clip-rule:evenodd;fill:#B2B3B3;}
	.st25{fill-rule:evenodd;clip-rule:evenodd;fill:#FEFEFE;stroke:#2B2A29;stroke-width:0.5668;stroke-miterlimit:10;}
	.st26{fill-rule:evenodd;clip-rule:evenodd;fill:#727271;stroke:#2B2A29;stroke-width:0.5668;stroke-miterlimit:10;}
</style>
<g id="Layer_x0020_1">
	<polygon class="st0" points="0,-23.2 2100.2,-23.2 2100.2,1995.4 0,1995.4 	"/>
	<polygon class="st1" points="961.8,379.1 982.8,366.2 983,254.1 961.7,308.8 	"/>
	<path class="st2" d="M1183,1475.1l78,0l0,390.9c-4.1-3.3-32.4-38.3-38.5-45.1l-19.2-22.7c-3.3-4-6.2-7.2-9.7-11.3
		c-2.5-2.9-7.3-10.2-10.5-11.4c-1.1,2.5-2.5-0.4,4.3,7.6l71.3,84.7c2.7,2.2,51.9,0.6,59.3,0.6h695.9V494.6l-182.1-0.1
		c-8-0.1-6,0-7.9,5.8l1.5,0.3l0.1,13.5l94.4-0.3l66.7,0.2l-198.8,122.5c-1.5,0.6-118.9,1.1-121.5-0.5c-3.3,0.1-0.6-0.3-4.2,0.5
		c0-4.1-1-9.6,0.5-13.2l1.3-2.1c0.1-0.4,0.4-0.4,0.5-0.7c-9.1,5.2-27.4,2.6-39.5,2.6c-13,0-27.3,0.6-40.1-0.2l2-2.4
		c0.3-0.4,1.2-1.2,1.5-1.5l54.3-44.6c8.5-7.3,6.6-6.4,20.2-6.4l65,0c8.1,0.4,6.4,1.9,9.4-2.8l-82.9-0.2c1.8-1.1,10-10.2,14.7-11.1
		l79.8-0.1c3.4,0.9,0.7,0,1.1,1.2l-0.1,1.8c1.6-1.1,2.9-1.8,4.2-2.9l3.2-3.5c-12.7,3-68,0.9-85,0.9c1.7-3.4,0.8-1.8,4.6-4.9
		c1.7-1.4,3.1-2.8,4.1-3.8l-0.7-1c-3,1.4-11.7,9-15.2,12c-11.4,10-100.3,81.4-102.7,85l-0.1,1.9c3.3-1.7,12.2-9.6,16-12.8
		c5-4.3,16.1-2.7,24.9-2.7c13.9,0,44.3-1.6,56.3,0.3l1.1,13.7l122.6,0c2.5,2.9,1.4,55.7,1.4,63.6c0.1,27.8,2,181.6,0.6,195.4l1-16.4
		c0-5.3,0-10.7,0-16l-0.1-226.4c4.8-1.1,20.5-11.8,26.3-15.2c8.7-5.1,16.8-10.3,25.3-15.7l151.6-92.9c1,7.9,0.4,387.6,0.4,407.4
		c0,7.6-2.4,5.4-10.6,5.3l-119.1,0.3l0-18.5c0-2.3,0.2-5.1,0.1-7.3c-0.1-3.5,0.9-5.1-1.9-4.7v1.1c0.6,0.8,0.3-0.3,0.8,2l-0.2,27.3
		c-9.1,0.2-18.6,0.2-27.7,0c-20-0.4-48.4,18-64.4,19l-2.4,1.2c-6,4.5-92.6,31.3-106.8,38.4c-1.9,6.3-0.8,15.5-0.8,22.3l128.5,0
		l0,69.7c1,1.4-1.7,1.1,2.4,1.1l-0.3-71l202.2-54.9l0.2,502.4l-19-4.2c-6.8-1.3-13.3-2.6-20.2-4c-13.3-2.6-26.9-5.1-40.3-7.9
		c-0.7-11.9,1.5-55.1-0.7-62.1l-122.1-10.9l-0.3-56.7c-0.6-3.6,0.7-1.5-2.3-1.8c1.1,15.7-0.1,33.7,0.2,49.8c0.2,10.7,2.5,9-15.8,9
		l-122.7,0.1l0,46.7l5.6,2.9c0.1-0.2,0.5,0.3,0.7,0.6l-12.3,0.1c-4,27.3,5.2,23.9,18,28.3l86.5,29.5c23.7,8.1,12.8,5.6,40.5,5.6
		l0.3,285.7l-78.4,0l-0.1,6.3l78.9,0.3l0.1-5.4l200.2,71.4l-437.6,0l0.2-67l64.1-0.1l-0.5-5.5l-63.8,0l0.1-186.2
		c-12.2-5.1-11.7-2.1-12.6-7.8l-1.6,1.6c-1.6,0.8-2.4,0.3-5.6-1c-2.6-1-4.8-1.8-7.4-2.7l-29.4-10.6c-1.9-0.7-5.4-2.8-5.5-2.9
		c-0.3-0.2-2.5-0.1-6.2-1.3c-10.7-3.5-54.6-20.9-58.9-21.3c-1.5,1.4-1.8-1.4-0.8,1.9c6.5,1.2,38.6,12.4,42.8,15.7
		c-0.9,4.7-3.1,4.4,0.1,5.7c-0.2-0.3-0.9-2.8,0.1-5.8l55.8,19.5c7.6,2.9,16,4.2,18.1,8.7c-2.4,2.4,0.6,0.5-2.6,1.6
		c-2.8,0.9-7.4,0.5-10.4,0.2l-0.2,255.8l-120.4-73.1l4.8,6.8l112.2,67.9l-211,0l0.1-68.1l37.8,0.1l-1.3-4.8l-36.6,0.1l0-285.6
		c40.7,0,81.3,0,122,0c20.2,0,41-0.5,61,0c17.4,0.5,14.6,6.6,54,6.6c0.2-0.2,0.4-0.6,0.5-0.8c0.1-0.2,0.3-0.6,0.4-0.8
		c0.1-0.3,0.3-0.5,0.4-0.8l0.7-4.1l99.7-0.2l0.1-25.5c-10.8-3-60.8-22.4-76.1-27.9c-5.6-2-21.3-6-24.2-10.2l-0.4-332.1
		c-5.6-0.4-11.5-0.1-17.2-0.1c-11.5-0.1-13.9,0.9-16.5,0.9c2.9,1.9,5.6-0.1,9.8-0.7l0,371.2l-8.3,0.7c-3,0-6,0-9,0l-197.4-0.7
		c-7.3-1.9-126-0.5-144.6-0.6l-54.1,0c-9.2,0.1-6.1-1.9-6.3-11.5l-1.4-140.1c0.2-2-0.2,0.2,0.3-1.9c0.5-2.2,0.5-1.7,1-2.5l194.5,0.4
		c-1.1-11.5-0.6-153.2-0.2-180c0-1.4,0.2-4.9,0.1-6c-0.5-4.7,0.6-1.7-1.4-4.2c2,7.9,0.7,176.3,0.7,189.2l-193.8-0.4l0-174.6l176.7,0
		l-0.3,162.5c0.6-0.9,0.5-0.7,0.9-2.6l0.2-7.9c0-3.3,0-6.7,0-10c0-42.8-1.5-104.8,0.1-143l-177.6-0.4l0.2-114.2l297.2-0.1
		c1.9,12.1-2.8,16.2,6.1,16.9c15.3,1.2,20.3-2.6,34.2-8.1c25.5-10.2,14.4-8.6,36.9-8.7c16,0,32,0,48,0c17.9,0,31.1,1.8,45-3.4
		c23.5-8.7,46.6-16.9,70.2-25.8c23.2-8.7,47.7-16.3,70.2-25.8l-0.1-25.9l-5.3-0.1c-27-1.1-148.5,1.4-158.3-0.3l-0.2-134.3l-0.5-7.3
		l-23.6,0l-14.8,8.9l14.7-8.2l-0.2,141.6h-52.2l0-22.9l-67.2,0l-2.1,0l-108.9,0l-6.9,22.4c-10.1,0.6-47.8,1.8-54.6-2.3l-1,2.5
		l-126.5-1.6c4-2.4,110.1-0.3,125.7-1c-7.9-4.3-106,1.1-125.8-1.5c0-17.8-1.6-129.9,1.5-137.7l-26.8,0.1l-1.3,2.7
		c2.2-0.8,0.8-0.5,2.1,0.3l0,138.5c-20.1,0.3-159.8,2.4-166.2-0.5c-3.7,1.9-12.8,30.6-15,36.6c-9.7,26-8.5,17.5-8.5,43.6
		c1.7,0.4,2.5,0.5,4.2,0.9l4.7,1.8c-2.9,5.1-4.4-2.8-8.7,7.3c-2,4.7-0.9,36.4-1.2,43.8c13-0.2,7.6,0.3,10.9,3.9l46.7,0
		c0.3,0,2-0.2,2.2-0.3c0.2-0.1,0.6-0.3,0.8-0.4c0.2-0.1,0.5-0.3,0.7-0.5l-50.4,0.1c0.1-4,1.6-5.4,3.3-8.7c1.9-3.8,0.8-5,0.7-10.2
		c-0.1-8.2,0-16.6,0-24.8l57.6-0.4l-0.1,44l2.7,0.2l-0.5-43.3c22.7,4.1,24.5,8.2,35.8,19.8c3.9,4,10.1,9.6,13.2,13.8
		c4,5.2,4.8,15.1,8,19.3c-0.2-3.9-5.2-17.3-7.5-19.9c-4.4-5.1-23.7-26-29.1-27.9c-4.7-1.6-18.7-4.7-20.7-7.6l-59.1,0.2
		c0-9.9-1.5-9.6,6.7-25.9l56-0.2c4.8,0,4.6-0.9,6.3,2.2l1.3-2.6l-0.3-12l-64.3-0.1c-2.4,3.6-4.8,10.5-6.5,14.6
		c-5.8,13.5-3.1,11.9-10.4,11.8l21.2-54.1l163.4-0.1c-2.1,2.1-3.1,4.4-5,6.5l-30.5,34.4c-2.5,2.9-2.9,3.6-6,7
		c-2.9,3-2.8,5.3-6.7,6.1c1.5,1.2,1.8,1.3,2.4,2.6c1.9-2.9,3.6-4.9,5.8-7.2c3-3.1,3.5-4.3,6-7c2.7-3,3.7-4,6.1-6.9l18.4-20.6
		c2.3-2.9,3.6-4,6.1-6.9c2.3-2.7,2.6-3.6,5.5-6.5l0.4,500.3l-16.9-12.9c-3.9-3.9-2.1-49.6-2.1-58c0-3.5,1.1-22.5-0.8-25.1
		c-1.3-1.8-0.5-0.8-2.4-1.5c3.9,4,2.5,8.5,2.5,18.6c0,15.7,0.9,52.6-0.2,63.8c-1.2,1-1.3,2.4-1.4,2.5c5.2,2.3,16.1,13.4,18.9,14
		c-31.2,1-64,0.1-95.3,0.1c-16.1,0-276.2,0.9-281.2-0.5l-2.1-0.9c-1.1-17.6-1.1-105.2-0.3-124c0.8-20.3-0.3-41.5-0.3-62l-0.1-249
		c0-17-1.8-47.6,0.4-63l9.9,25.9c3.9,10.8,3.4,7.3,4,4.6l-12.7-34l99.2-0.5l-2.1,53.7l-9.3,0.5c-1.4,1-1.2,0.4-0.3,2.1l11.6-0.5
		l1.9-67.4l-102.5-0.7l1.2-153.8l-16.3,0c0,51.2-0.1,102.5-0.4,153.5l-6.3,0.2c-0.5-5,0-8.1-1.3-12.6l-1.4,4.6l-6.5-1.3
		c-1.2-4.9-1.9-5.1,0.2-7.3l2.4-1.2c-3.7-0.2-3.2-0.2-5.6-2c-2.3-3.5-20.8-1.6-30.1-1.9c-5.3-0.2-10.7-0.2-16,0.1l-11.6,1.2
		c-2.9,1.1-0.4,1.2-4.4,1.9c-0.6,0.1-3.1,0.1-3.9,0.1c-11.2,0-48.7,1.2-53.9-0.8l0.8,5.7c-3-0.1-6-0.3-9-0.3c-1.2,0-4,0-5.1,0.1
		l-2.9,0.8c-0.2-0.3-0.6,0.2-0.9,0.4l17.7-0.1c-5,2.7-20,0.6-26.8,0.5c3.7,2.3,11.5,1.4,18,1.5c7,0.1,11-0.9,17.1-1.4l1.7,12.1
		l-51.9,0l0.1-10.2c-1.8,3.6-0.9,4.6-1.2,9.1c-10.5,1.2-19.7,1-30.6,1.1l-0.5-6.7c5.2-1.6,8-2.4,14.1-1.6l0.6-10.6l-6.2,0.6l4.7,1.6
		l-0.1,6.8c-4.1,0.2-5.6,0.8-9,1.4c-4.7,0.8-4.1-1.3-4.9-1.2l-0.3,9.7c-5.7,0.1-4.7,1.3-5.2-3.8c-1.4,4.6,0.8,2.4-2.5,3.8
		l-146.6,0.5l-0.4,13.1l75,54.9c4.8,0.1,27.6,1.6,31.3-1.3c-6.7-3.1-25.3,3.3-35-4.4L318,952.6l365.1-0.1l0,54.2l-197.9,0
		c-3.5-1.8-8.1-11.2-10.4-14.9l-48.8-0.3c-5.7,0.2-3.9-0.6-4.8,1.9c4.1-2.5,44.2-1.3,51.8-1.1l0.4,39l-50.1,0
		c-3.7,0.5-1.4-0.8-2.3,3l11.3,17.9l53.9,0.1l-0.5-43.5l197.4,0l-0.3,39.6l0.3,318.8c-3.6,0-35.1-0.5-35.3,0.7
		c-0.1,0.4-0.3,0.6-0.4,0.7c-0.1,0.1-0.3,0.5-0.4,0.7c-0.6,0.8,0.7,2.1-6.7,2l-36.1-0.1c-16.3,0-32.8,0.2-49.1-0.1
		c2.8-2.2,3.2-1.2,4.9-4.6c-11.6,3.6-8.8,4.1-9.7,6.4l38.1-0.5c0,11.1-1.1,33,1,43.8l-93.6-0.4l7.4-3.1l0.1-64.4
		c-52.1,1.2-105.8,0.1-158.1,0.1l-119,0c-14.3-0.1-20,3.4-33,6.3c0-49.8,0.3-99.6,0.4-149.3c0.1-19.6-1.6-140.3,1-148.2l-2.7-1.5
		l-0.9,299.8l-65.2,17.6c-0.6,5.4,3,1.2,15-2.4c5.3-1.6,11.1-3.2,16.4-4.6c8.1-2.1,25.7-8.2,34.6-8.7c0,6.4,1.5,7.3-3.8,9.4
		c-4.3,1.7-19.8,4.6-26.8,7.5l-0.2,64c0.7,5.6-0.4,2.1,1.7,4.6c-2.6-14.4-0.6-50-0.6-66.7l1.3-0.8c0.1-0.1,0.5-0.3,0.7-0.3l11.9-4.5
		c5.7-1.4,10.3-3.3,15.9-4.2l0.3-1.2c5.6-0.4,23.6-6,29.8-7.8c8-2.3,21-7.3,31.2-8.2c0,16.6,3.1,10.9-18.9,17.5
		c-5.7,1.7-20.7,6.8-25.7,7.5c0.1,0.2-2,3,4.6,0.2l15.8-5.8c7.1-2.3,17.7-5.9,24.3-6.3c0,2.4,0.1,4.9,0,7.2
		c-0.1,1.6,0.4,6.3-0.5,4.2l0.5-11.4l42.2-12.2l0.1,19.7l-11.2,3.8c-3.6,7.9,0.3,55.5-1.5,69.5l1.7-1.6c1.4-1.6-0.2-1.9,1.8-2.3
		l140.1,0.7c6.1,0.1,5.2,1.4,6.4,3.3c6.6-1.7,37.3-16,47.7-20.6c8.6-3.8,8.1-4.3,18.8-4.2c15,0.1,30,0,45,0c14,0,32.9-1,46.3,0.3
		l-0.5-46.3l30.6,0.1l2.2-0.5l24,0.4l0,61.3l-23.8,0.6c-3.6,2.1,1.7,1,10.2,1c4.3,0,8.7,0,13,0l2.4,4.7l-0.5-67.7l1.1,0l33.9,0
		l-0.4,67.2l0.2,16.2l-586.3,0l24.3-9.7c3.5-1.3,6-1.8,8.6-4.1l-5.2-0.2l-31.9,12.9l0.3-507.7c10.4-2,76.1-1.1,95.5-1.2
		c14.9-0.1,14.9,2.7,24.6,8.9l67.6,44.3c4.2,2.7,7.7,4.2,10.3,7.7c-6-0.5-7.9-2.7-12.2-5.6c0.7,1.2-0.3,0.1,1.3,1.6
		c8.9,8.3,13.6,5.3,17.5,5.3c1-9.6-3.2-9.7-8.6-13.3l-77.6-49.3c-10.4-6.7-7.3-5.5-13.9-5.3l0.2-376.6l416.8-0.2
		c2.6-2.6,0.7-1.2-0.6-2.2l-416.3,0.2l-48.8-83.2c-8.2-14.1-16.3-27.4-24.6-41.4c-4.4-7.4-22.4-36.6-24.2-41.9l583.4,2.8L683,529.4
		l0,136.2c-0.1,4.7-0.3,6,1.7,8c14.3-0.1,8.4-0.9,14,2.6l0.3-243c-1.7,2.9,3.7,115.7,3.9,130.3l87.2-0.1l1.3-189.5l-93-0.3l0-51
		l84.8,0.4c7,0.1,8.3,3,7-20.5l-1-0.6c-1.4,1.3-0.6-2.5-1.2,3.5l0,15.4l-89.9-0.1l0-186.1l93.2-0.5l0.8-0.5l-0.2-20.8
		c-0.1-0.3-0.2-0.6-0.2-0.8c-0.6-2.3-1.9-2.3-5.5-2.5c-23.2-1-78,0.1-102.1,0.1c0,44.3-1,86.2-1,131c0,44.3,0,88.7,0,133H79.2
		v1101.9L1183,1475.1L1183,1475.1z"/>
	<path class="st3" d="M613.5,561.3l0.6-31.6l68.8-0.3l0.2-131.6L99.7,395c1.8,5.3,19.8,34.5,24.2,41.9c8.3,14,16.3,27.3,24.6,41.4
		l48.8,83.2L613.5,561.3L613.5,561.3z"/>
	<path class="st4" d="M792.1,133.6l-0.8,0.5l-0.6,48.4c10.7-3,87.6-0.9,104.9-0.9l-5.8,53.6l-98.5,0.1l-0.1-26
		c-2.3,5.8-1.4,78.9-1.9,92.7l1,0.6l1.1-59.8l97.9-0.1c-0.8,17.2-8.6,67.2-6,79.7c5.6,1.5,64.8,1.4,72.1,0.3
		c1.3-2.8,31.4-164.9,32.3-176l0.1,226.5l-16.2,0.4l-9.7,0l-35.9,0.3c-3.2,17.9-8.6,72.6-11.1,94.6l-8.2,70.8
		c-0.6,5.6-2.2,15.4-1.4,21.2c0.5,3.9,1.8,4.1,5.8,4.3c10,0.6,34-1.4,41.5,0.4c1.7,5.7,0.1,137.5,0.4,156.4c0.1,9.6-1,46.6,0.5,52.6
		l76.1,0.6c-3.4-3.1-11.9-1.6-16.4-1.6h-52l2.3-6.6c-0.1,0-0.4-0.3-0.4-0.2c0,0.1-0.4-0.2-0.5-0.2l-1.6-0.7
		c-0.7-15.2,2.5-23.9,7.2-36.7l15.9-50c1.3-5.6,0.1-14.6,0.1-21.2l0-33c-0.2-11.3-0.3-10.9,7.9-10.3c2.6,6.8,1.4,52.8,1,62.8
		c0-13.2-1.5-106.4,0.9-110.3l0.2,110.7c5.5-0.9,0.6,0.3,2.2-2.4l-0.5-245.6l78.7-0.3c1.2,4.7,1.8,236.4,0.2,245.9
		c1.4,4.7-2.6,2.9,4.5,2.8l1-3.3l21.3,0.1l-50.1,100c0.7,0,1-0.6,1.1-0.4c0.1,0.2,0.5-0.5,0.6-0.6l2.8-4.6
		c8-16.1,47.9-91.9,49.8-98.1c-2-2-0.8-29.7-0.8-35.4c0-12.7,0-25.3,0-38c0-25-0.5-50.7-0.2-75.5l-0.1-77.7
		c0.2-8.6-1.1-43.9,0.7-48.8c9.5-1.2,194-0.2,209-0.2c23.5,0,203.7-1.9,209.4,0.9c1.7,5.4,0.9,264,0.9,276.5
		c-4.8,2.3-24.5,19.4-29.8,24.1c-1.4,1.2-1.8,1.4-3.4,2.6l-41.5,34.5c-2,1.5-1.7,1.5-3.7,3.2l-42.2,34.5c0-23-1.3-193.1,1.1-211.5
		c-5.4,2.3-237.2,0.9-265.3,0.9l0.2-30.4c-1.8,2.2-1.9,2.9-1.8,7.8l0.1,121.2c-2.7,0-10.5-1.1-12.1,0.9c-0.1,0.1-0.4,0.5-0.4,0.6
		c-0.1,0.1-0.2,0.4-0.3,0.6l-23.9,46.6c7.2,2.5,8-5.7,16.5-20.3l14.6-27.5l7,0.1l0-97.2h263.4l0,210.9c3.8,1.9,10.1,1,14.5,1.1
		c11.8,0.1,11.4-3.4,29.2-17.6c10.3-8.2,96.6-77.1,102.8-83.3l-0.5-33.5l13.6-0.5l0.1-1.9l-13.6,0.4l-0.1-33.7l0-47.7
		c0.4-11.3-1.3-32.9,0.7-42.6l160.9,0.9c-5.2,5.8-24.3,18.8-30,25.8l0.7,1c4.7-1.5,1.2-1.7,5.3-2.6l76.8-0.2c9.3,0.1,6.4,3.2,12.9-2
		l17.1-12.9c0.2-0.2,0.9-0.8,1.2-1.1c1.6-1.7,0.2,0.2,1.6-2.1c-4.3,0.8-1.9,0-5.4,2.5l-13,9.9c-5.5,4.3-15.7,2.5-27.5,2.5
		c-20,0-40,0-60,0c1.9-2.8,19.3-16.5,23-19v-23h-164c0-41.5,1-79.6,1-121h-536.9v-264h-110l-7,63h-104
		C792.1,164.5,793.7,137.8,792.1,133.6L792.1,133.6z"/>
	<path class="st5" d="M1785,1078.6l-40.6,0.3c-1.2,5.7,1.7,6.7-12.4,7.6l0,16.1l14.7-1.1c0.7-8.7-0.6-13.1-0.8-20.8l88.1,0v226
		l-90-0.3c2.8,3.5-1.6,2.3,6,3.2l34.7-1c3,0.3,1.7-1.9,2.3,1.8l0.3,56.7l122.1,10.9c2.2,7-0.1,50.2,0.7,62.1
		c13.4,2.7,26.9,5.2,40.3,7.9c6.9,1.4,13.4,2.7,20.2,4l19,4.2l-0.2-502.4l-202.2,54.9l0.3,71C1783.3,1079.7,1786,1080,1785,1078.6
		L1785,1078.6z"/>
	<path class="st5" d="M1787.3,1490.4l0.3,275.3c1.6,1.3,191.6,69.7,202.1,71.7l-0.3-355.7c-4.5-1.1-192.9-1.5-202.1-0.2
		L1787.3,1490.4L1787.3,1490.4z"/>
	<path class="st6" d="M1060,1439.2l-83,0c0-9.9,1.4-73.3-1.2-81.1c-2.3-7-8.2-24.3-8.8-29.7c-1.3,0.8-3.3-1.7-0.8,7.7l6,19.2
		c0.6,3,1.1,1,0.1,3.4l-6,0.7c-2.9-5.9-3.8-11-4.9-16c-1.3-6-4.2-11.8-4.2-17c2.1-0.8,2.3,0,3-0.3c4.8-1.4,1.8,0.8,5-2.7h-11.9
		c0.2,23.6-2.8,73.3,4.4,92.3l-170.3,0.1c0.3-67.8-0.1-135.6,0.1-203.4c0.1-22.8,1.9-196.9-0.2-203.6c-0.9-1.8-1.2-1.1,0.3-2.1
		c1.5-6,0.7-13,0.7-19.3c-11,0.6-69.8,1.5-75.8-0.5c-0.6,2.7-0.1,6.2-4-4.6l-9.9-25.9c-2.2,15.4-0.4,46-0.4,63l0.1,249
		c0,20.5,1.1,41.7,0.3,62c-0.8,18.8-0.8,106.4,0.3,124l2.1,0.9c5,1.3,265.1,0.5,281.2,0.5c31.4,0,64.2,0.9,95.3-0.1
		c-2.8-0.6-13.7-11.7-18.9-14C1058.6,1441.6,1058.8,1440.2,1060,1439.2L1060,1439.2z"/>
	<path class="st3" d="M1105.6,442.4l9.3-19.7l110.1,0.3l-50.9,99.7l-68.3-0.3l-0.2,7.2c4.4,0,30.2-1.1,34,1.2l-0.2,30.4
		c28,0,259.9,1.4,265.3-0.9c-0.3-4.4-0.2-2.3,2.6-6.2l112.2-156.6c2.2-2.4-0.2-0.9,1.4-0.9h-415.4L1105.6,442.4L1105.6,442.4z"/>
	<path class="st5" d="M1783,639l1.7,257.9c-7,0-15.4-0.2-21.4-0.4l1.3,12c-0.1,9.4,0.7,33.7-0.5,39.8l2.4-1.2l-0.2-48.1l91.7-0.3
		v-1.1l-22,0l-0.5-218.1c2.1-3.9,7.2-5.4,10.9-7.6c4.3-2.6,7.8-4.5,12-7c8.1-4.9,16-9.1,24-14l47.2-27.1l0.8,259.7
		c-3.2,4.3-12,5.5-17.1,7.4c-6.2,2.3-11.5,4.1-17.7,6.3c-10.4,3.7-25.6,10.2-35.8,12.5l0,18.5l119.1-0.3c8.2,0.1,10.6,2.3,10.6-5.3
		c0.1-19.7,0.7-399.5-0.4-407.4l-151.6,92.9c-8.6,5.4-16.6,10.5-25.3,15.7c-5.8,3.4-21.6,14.1-26.3,15.2l0.1,226.4
		c0,5.3,0,10.7,0,16l-1,16.4c1.3-13.8-0.5-167.6-0.6-195.4C1784.4,694.7,1785.4,641.9,1783,639L1783,639z"/>
	<path class="st7" d="M124.3,1442c2.1-13.4-1.7-63.5,1.5-68.9l65.2-17.6l0.9-299.8l2.7,1.5l5.2,4.1c7.7,3.6,8.1,2,17.4,2
		c8.6,0,20,0.6,28-0.1c4-4.1-1.2-1.5,6-1.5c1.2,0,3.5,0.3,5,0.3l31.7,0l-9.9-6.5c-3.4-1.8-6.1-3.7-9.5-5.4l-56.4-30.8
		c-15.1-0.1-31.8,0.5-45.7,0.5c-13.5,0-32.5-1.9-45.8-0.2c3.4,1.7,3,2,4.1,3.9c-1.9-0.6-2.6-0.8-4.5-1.6c-0.3-0.1-1.3-0.7-1.5-0.8
		l-1.4-61.5c2.7-0.7,78.2-1.7,92-0.8c1.4,0.1,1.6,0.1,3,0.4c2,0.5,1.7,0.5,2.8,1.3c3.3,0.1,5.9,2.9,9,4.9l3.7,2.3
		c3.6,2.1,48.5,29.8,50.8,33.6c4.3,3,6.2,5.1,12.2,5.6c-2.6-3.5-6.1-5-10.3-7.7l-67.6-44.3c-9.8-6.2-9.8-9-24.6-8.9
		c-19.4,0.1-85.1-0.8-95.5,1.2l-0.3,507.7L124.3,1442L124.3,1442z"/>
	<path class="st0" d="M550.3,1373.1c0.9-2.4-2-2.8,9.7-6.4c-1.7,3.5-2.1,2.4-4.9,4.6c16.3,0.3,32.8,0.1,49.1,0.1l36.1,0.1
		c7.4,0.1,6.1-1.2,6.7-2c0.1-0.2,0.3-0.5,0.4-0.7c0.1-0.1,0.3-0.3,0.4-0.7c0.2-1.2,31.8-0.7,35.3-0.7l-0.3-318.8H551.1
		C551.1,1083,552.9,1366.8,550.3,1373.1L550.3,1373.1z"/>
	<path class="st7" d="M92.7,940.9l92.2-0.6c-1.3-11.4-0.1-299.9-0.1-310.8c0-12.7,0-25.3,0-38c0-18,2.1-23.5-4.2-34.3L93.2,410.5
		L92.7,940.9L92.7,940.9z"/>
	<path class="st8" d="M1104.6,1300.1c-0.5,0.7-0.5,0.3-1,2.5c-0.5,2-0.1-0.1-0.3,1.9l1.4,140.1c0.2,9.6-2.9,11.6,6.3,11.5l54.1,0
		c18.5,0,137.3-1.3,144.6,0.6l197.4,0.7c3,0,6,0,9,0l8.3-0.7l-106.5-35.4l59.6-1.5l-0.2-229.6l-71.8,0l-0.1-70.6l11.1-3.3l0.1-2.4
		c-4.5,1.5-11.1,2-14.2,5.7l-0.5,70.8l-14.8-0.3c-1.2,1.7-1.4,2.5-1.2,5.9l-12.3,1.7l0,15.9l12.2-1.6l-0.1,192.4l-12-4.3l0.1,11.5
		l9,3.9l-278.2,0.1L1104.6,1300.1L1104.6,1300.1z"/>
	<path class="st5" d="M1104.4,444.4l1.2-2l0-45.8H1521c-1.6,0,0.8-1.5-1.4,0.9l-112.2,156.6c-2.9,3.9-2.9,1.8-2.6,6.2
		c-2.3,18.5-1.1,188.6-1.1,211.5l42.2-34.5c2-1.7,1.8-1.7,3.7-3.2l41.5-34.5c1.6-1.2,2-1.4,3.4-2.6c5.3-4.7,25-21.8,29.8-24.1
		c0-12.6,0.8-271.2-0.9-276.5c-5.7-2.8-185.9-0.9-209.4-0.9c-15,0-199.5-0.9-209,0.2C1103.3,400.5,1104.6,435.8,1104.4,444.4
		L1104.4,444.4z"/>
	<path class="st5" d="M1412.4,1771.1l28.1,16.8c7.8,4.7,79.2,48.4,83.8,50.1l0.2-255.8c3,0.3,7.6,0.8,10.4-0.2
		c3.2-1.1,0.2,0.8,2.6-1.6c-2.1-4.4-10.5-5.8-18.1-8.7l-55.8-19.5c-1,3.1-0.3,5.6-0.1,5.8c-3.1-1.3-0.9-1-0.1-5.7l-42.8-15.7
		l-1.6,2.8l-15.9-4.1l0.9,229.5L1412.4,1771.1L1412.4,1771.1z"/>
	<path class="st5" d="M1183,1775.5c3.2,1.2,8,8.5,10.5,11.4c3.5,4.1,6.4,7.2,9.7,11.3l19.2,22.7c6.2,6.8,34.4,41.8,38.5,45.1
		l0-390.9l-78,0V1775.5L1183,1775.5z"/>
	<path class="st8" d="M125.8,1373.1c-3.2,5.4,0.6,55.5-1.5,68.9l5.2,0.2c-2.6,2.2-5.2,2.7-8.6,4.1l-24.3,9.7l586.3,0l-0.2-16.2
		l-34.1,0.6l-2.4-4.7c-4.3,0-8.7,0-13,0c-8.4,0-13.8,1.2-10.2-1l-0.2-62.4l-2.2,0.5c0,8.2,1.7,43-1.1,47.2
		c-2.9,1.8-11.1,0.7-15.4,0.7c-4.2,0-11.9,1.4-13.7-1.7c-13.5-1.4-32.3-0.3-46.3-0.3c-15,0-30,0.1-45,0c-10.7-0.1-10.2,0.4-18.8,4.2
		c-10.4,4.6-41.1,19-47.7,20.6c-1.2-1.8-0.3-3.2-6.4-3.3l-140.1-0.7c-2,0.4-0.3,0.7-1.8,2.3l-1.7,1.6c1.8-14-2.2-61.6,1.5-69.5
		l-31.6,0.1c0.9,2.1,0.5-2.6,0.5-4.2c0.1-2.4,0-4.9,0-7.2c-6.6,0.4-17.1,4.1-24.3,6.3l-15.8,5.8c-6.6,2.9-4.4,0-4.6-0.2
		c5-0.6,20-5.8,25.7-7.5c22-6.6,18.9-0.9,18.9-17.5c-10.2,0.9-23.2,5.9-31.2,8.2c-6.2,1.8-24.3,7.4-29.8,7.8l-0.3,1.2
		c-5.6,0.9-10.3,2.8-15.9,4.2l-11.9,4.5c-0.2,0.1-0.5,0.3-0.7,0.3l-1.3,0.8c0,16.7-1.9,52.2,0.6,66.7c-2.1-2.6-1,1-1.7-4.6l0.2-64
		c7.1-3,22.5-5.8,26.8-7.5c5.3-2.1,3.8-3.1,3.8-9.4c-8.9,0.5-26.6,6.6-34.6,8.7c-5.3,1.4-11.1,3-16.4,4.6
		C128.9,1374.3,125.2,1378.5,125.8,1373.1L125.8,1373.1z"/>
	<polygon class="st1" points="1836.3,1077.5 1836.9,1319.6 1930.2,1326.1 1930.2,1056.5 	"/>
	<path class="st5" d="M1514.5,1086.1c-14.9,2.6-33.9,9.2-49.1,13.5c-11.1,3.1-40.2,9.9-48.9,14.2l-0.1,2.4l-11.1,3.3l0.1,70.6
		l71.8,0l0.2,229.6l-59.6,1.5l106.5,35.4l0-371.2C1520.2,1086,1517.4,1087.9,1514.5,1086.1L1514.5,1086.1z"/>
	<path class="st1" d="M1858,897.6c2.8-0.3,1.8,1.3,1.9,4.7c0.1,2.2-0.1,5-0.1,7.3c10.2-2.3,25.4-8.8,35.8-12.5
		c6.2-2.2,11.5-4.1,17.7-6.3c5.1-1.9,13.9-3,17.1-7.4l-0.8-259.7l-47.2,27.1c-8,4.9-15.9,9.1-24,14c-4.2,2.5-7.7,4.4-12,7
		c-3.7,2.2-8.8,3.7-10.9,7.6l0.5,218.1L1858,897.6L1858,897.6z"/>
	<path class="st3" d="M789.2,302c0.5-13.8-0.4-87,1.9-92.7l0.1,26l98.5-0.1l5.8-53.6c-17.3,0-94.2-2.1-104.9,0.9l0.6-48.4l-93.2,0.5
		l0,186.1l89.9,0.1l0-15.4C788.7,299.6,787.8,303.4,789.2,302L789.2,302z"/>
	<path class="st0" d="M1388,1199.5l-1,202c0,6.3,2.2,2.5,0.1,17.3l88.8,0l0.2-227.3l-89.1-0.1L1388,1199.5L1388,1199.5z"/>
	<path class="st9" d="M996.2,675.2h78.4c1.7-9.6,1.1-241.3-0.2-245.9l-78.7,0.3L996.2,675.2L996.2,675.2z"/>
	<path class="st3" d="M1104.4,1006.5l21.6,0.3c19.9-0.1,273.4,1.1,279.4-0.9c5.1-1.6,13.7-6.4,19-8.9c6.5-3,12.9-5.7,19.3-8.7
		c25.5-12.1,51.1-24,76.8-35.3l-416.2-0.5L1104.4,1006.5L1104.4,1006.5z"/>
	<path class="st3" d="M390.2,1008.8c2,1.5-0.3,0.7,3.9,1.7l25.1,0.1c0,7-1.3,19.8,1.7,24c0.9-3.8-1.4-2.5,2.3-3l50.1,0l-0.4-39
		c-7.6-0.3-47.7-1.5-51.8,1.1c1-2.6-0.8-1.7,4.8-1.9l48.8,0.3c2.3,3.7,6.9,13.1,10.4,14.9l197.9,0l0-54.2L318,952.6l68.5,50.5
		c9.7,7.7,28.3,1.3,35,4.4C417.7,1010.3,395,1008.8,390.2,1008.8L390.2,1008.8z"/>
	<path class="st3" d="M1666.4,635.8c2.6,1.6,120,1.2,121.5,0.5l198.8-122.5l-66.7-0.2l-6,1.1c-15.8,0.8-83.3-0.4-86.9,1.2
		l-133.5,101.2C1689.9,620,1671.3,636.2,1666.4,635.8L1666.4,635.8z"/>
	<path class="st3" d="M892.8,247.1l-1.5,10c-0.4,20.6-5.9,42.2-6.2,63.7h69.5l33.7-186.1l-82.2,0L892.8,247.1L892.8,247.1z"/>
	<polygon class="st3" points="705.6,560.9 787.8,561.3 788.9,398.3 699.3,397.9 	"/>
	<path class="st10" d="M613.5,561.3c1.3,1,3.3-0.5,0.6,2.2l0.3,156.8l4.4,0.6l67.3,0.2c1.7,8.6,1.5,18.2,2.5,26.4
		c1.1,8.3,0.8,19,2.5,26.5c3.4-2.4,0.9,0.4,2-3.2l-8.6-97c-1.9-2-1.7-3.3-1.7-8l0-136.2l-68.8,0.3L613.5,561.3L613.5,561.3z"/>
	<path class="st5" d="M1031.7,1009.2c5.4,5,11.1,10.9,16.3,16.3c3.7,3.8,3.5,5,5.4,10.5l11.8,32.1c1.2,2.8,0.2-1.7,1.1,3.3
		c1,5.9,0.6,152.1-0.1,159.1c-3.1,0-10.2,0.5-12.9-0.3c-1.1-0.3-18.1-11.4-23-12.7c1.4,1.5,0.6,7.1,0.6,9.7l0.1,96.4l-78-0.1h11.9
		c-3.1,3.5-0.2,1.4-5,2.7c-0.8,0.2-0.9-0.5-3,0.3c-0.1,5.2,2.9,11,4.2,17c1.1,5,2,10,4.9,16l6-0.7c1-2.4,0.5-0.4-0.1-3.4l-6-19.2
		c-2.5-9.4-0.5-6.9,0.8-7.7l-0.8-3.5c10.3,0.5,20.7,1.3,31,1.5c45.8,1.1,25.5-5.4,45.8,15.3c2.9,3,4.2,5,7,7.9
		c2.3,2.3,1.7,2.4,3.5,4.5c2.5,3.1,3.3,2.5,4.4,2.8c1.9,0.6,1.1-0.3,2.4,1.5c1.9,2.6,0.8,21.5,0.8,25.1c0,8.4-1.8,54.1,2.1,58
		l16.9,12.9l-0.4-500.3c-2.8,2.9-3.2,3.9-5.5,6.5c-2.5,2.9-3.8,4-6.1,6.9l-18.4,20.6c-2.4,2.9-3.3,3.9-6.1,6.9c-2.5,2.7-3,3.9-6,7
		C1035.4,1004.2,1033.7,1006.3,1031.7,1009.2L1031.7,1009.2z"/>
	<path class="st10" d="M946.8,1065.5c-6,3.6-10.7,3.8-17.8,8.9c-10.5,7.5-18.2,20.5-19.5,34.5c-0.5,5.9,0.8,6.4-1.7,11.5
		c-2,4-2.7,5.1-2.8,10.2c-0.2,19.7,16.7,19.7,20.6,20.7c2.7,0.6,5.3,3.5,7.8,5c12.7,7.5,28.4,8.5,43.5,3.4l0,50.9
		c1.3,7.1,2.7-6.7,3.6,12.7c4.6,1.5,5.1,3.5,10.4,4l40.1-0.1c0-2.7,0.7-8.2-0.6-9.7l-7.4-5.1c0-22.6,0-45.3,0-67.9
		c0-10.7-1.5-61,1.2-67c-1.5-0.5,0.4,0.4-1.1-1.1c-0.1-0.1-0.3-0.4-0.4-0.5l-1.8-1.8l-0.8,3.8c-6,0-12,0-18,0
		c-8.1,0.1-8.9,0.3-14-3.5c-9.5-7.1-12-6.2-23.8-10l-2.7-0.2l-11.1,0c-0.2,0.2-0.5,0.4-0.7,0.5c-0.2,0.1-0.6,0.3-0.8,0.4
		C948.7,1065.2,947.1,1065.5,946.8,1065.5L946.8,1065.5z"/>
	<path class="st10" d="M1650.8,1413.3c3.9,4.7,12.7,4.9,25.7,9.6c9,3.3,46.9,17.5,53.5,17.7c11.7,0.4,24.2-0.1,36-0.1
		c47.8,0,95.5,0,143.3-0.1l0-60.1c-8.7-2.5-116.4-1.2-140.3-1.2c-13.1,0-36.2,1.3-47.7-0.2c1.4,1.4,1.3,0.9,1.9,3.4
		c0.2,0.9,0.2,2.9,0.3,3.9c0,3-0.1,6.1-0.1,9.1c0,5.8,0.6,12-0.5,17.8L1650.8,1413.3L1650.8,1413.3z"/>
	<path class="st3" d="M907.6,562.4h45.4l28.2-126.6c0.7-3.2,0.9-6,2.8-8.6c1.8,2.7,0.6,28.5,0.9,32.6c2.8-5,7.6-26.2,6.4-32.7
		l77.7-0.4c1.8-2.7,8.4-26.5,9.5-31.4l-148.5,0c-2.4,0.7-1.8,1.2-2.7,8.4L907.6,562.4L907.6,562.4z"/>
	<polygon class="st1" points="281.2,522.6 387.1,522.6 347.2,422.7 231.5,422.9 	"/>
	<path class="st9" d="M1658.4,989.5v16.8l84-27.2c23.3-8.3,48.9-15.5,72.4-23.7c15.5-5.4,8.5-3.4,11-1.3l-159.1,52
		c25.3,1.8,85.3,1.2,115.3,0.6c7.8-0.1,46.9-11.7,56-14.2l145.2-39.8l-157.9-0.1l0.3-23c-6.3,0.8-126.8,44-146.7,50.8
		C1674.8,981.8,1660.2,986.9,1658.4,989.5L1658.4,989.5z"/>
	<polygon class="st5" points="1509.7,795.1 1402.6,868.5 1402.5,905.5 1471.9,905.5 1471.9,928.5 1524.2,928.5 1524.5,786.2 	"/>
	<path class="st1" d="M1254.8,522.6h98.3c3.7-0.7,73.6-97,75.5-99.6c-9-1.1-94.2-0.4-110.5-0.3c-3.2,0-14.2,19.8-16.4,23.5
		l-31.3,50.7C1265.7,504.1,1258.1,515.1,1254.8,522.6z"/>
	<path class="st0" d="M711.5,1427.7l73.7,0l0.3-155.8l-74,0.4C711.8,1349.2,711.6,1341.3,711.5,1427.7L711.5,1427.7z"/>
	<path class="st5" d="M1795.8,521.6c-1.4,2.3,0,0.4-1.6,2.1c-0.2,0.2-0.9,0.9-1.2,1.1l-17.1,12.9c-6.5,5.2-3.6,2.2-12.9,2l-76.8,0.2
		c-4.1,1-0.6,1.2-5.3,2.6c-1,0.9-2.4,2.4-4.1,3.8c-3.8,3.1-2.9,1.5-4.6,4.9c17,0,72.4,2.2,85-0.9l-3.2,3.5c-1.3,1.1-2.6,1.8-4.2,2.9
		l0.1-1.8c-0.4-1.2,2.3-0.3-1.1-1.2l-79.8,0.1c-4.7,0.9-12.8,10.1-14.7,11.1l82.9,0.2c-2.9,4.6-1.3,3.2-9.4,2.8l-65,0
		c-13.6,0-11.7-1-20.2,6.4l-54.3,44.6c-0.4,0.3-1.2,1.1-1.5,1.5l-2,2.4c12.8,0.8,27.2,0.2,40.1,0.2c12.1,0,30.4,2.7,39.5-2.6
		c-0.2,0.2-0.4,0.3-0.5,0.7l-1.3,2.1c-1.5,3.6-0.6,9.1-0.5,13.2c3.6-0.9,0.9-0.4,4.2-0.5c4.9,0.3,23.5-15.8,27.2-18.6L1827,516.1
		c3.6-1.6,71.1-0.4,86.9-1.2l6-1.1l-94.4,0.3l-0.1-13.5l-1.5-0.3c-2.1,0.2,0.3-0.5-2,0.4C1822,500.8,1796.2,518.4,1795.8,521.6
		L1795.8,521.6z"/>
	<path class="st3" d="M1548.5,557.5l56.1,0.4l-56.1,47.4l0.1,33.7l13.6-0.4c2.4-3.6,91.3-75,102.7-85c3.4-3,12.2-10.6,15.2-12
		c5.7-6.9,24.8-20,30-25.8l-160.9-0.9C1547.2,524.6,1549,546.1,1548.5,557.5L1548.5,557.5z"/>
	<polygon class="st1" points="1105.6,442.4 1104.4,444.4 1104.5,522.1 1105.7,522.4 1174.1,522.6 1224.9,423 1114.9,422.7 	"/>
	<path class="st11" d="M1029.4,774.8c4.6-0.5,3.9-2.2,7.8-10.2l41.8-86.6c-7.1,0.1-3.1,1.9-4.5-2.8h-78.4c-1.7,2.7,3.3,1.5-2.2,2.4
		l-0.2-110.7c-2.3,3.9-0.9,97.1-0.9,110.3c0.5-10,1.6-56-1-62.8c-8.2-0.6-8.1-1.1-7.9,10.3l0,33c0,6.6,1.2,15.6-0.1,21.2l-15.9,50
		c-4.7,12.8-7.8,21.6-7.2,36.7l1.6,0.7c0.1,0,0.4,0.3,0.5,0.2c0-0.1,0.3,0.1,0.4,0.2l-2.3,6.6h52
		C1017.6,773.2,1026,771.7,1029.4,774.8L1029.4,774.8z"/>
	<path class="st0" d="M966.9,1328.5c0.7,5.4,6.5,22.7,8.8,29.7c2.6,7.8,1.2,71.2,1.2,81.1l83,0c1.1-11.2,0.2-48,0.2-63.8
		c0-10,1.5-14.6-2.5-18.6c-1.1-0.2-1.9,0.3-4.4-2.8c-1.7-2.1-1.2-2.2-3.5-4.5c-2.9-2.9-4.1-4.9-7-7.9c-20.2-20.6,0.1-14.2-45.8-15.3
		c-10.3-0.2-20.7-1-31-1.5L966.9,1328.5L966.9,1328.5z"/>
	<polygon class="st0" points="711.5,1160.3 785.3,1160.3 785.4,1046.4 711.5,1046.3 	"/>
	<path class="st12" d="M974.7,992.4l29.8,9.4c10.4,3.1,6.2,1.9,12,7.2l19,20c1.3,1.3,4.4,4.2,5.1,5.1l12.5,34.4
		c-3.7,1.8-9.4,3-14.1,4.5c-5.7,1.8-9.5,2.8-14.7,4.5c-2.7,6-1.2,56.3-1.2,67c0,22.6,0,45.3,0,67.9l7.4,5.1
		c4.9,1.4,21.8,12.4,23,12.7c2.7,0.7,9.7,0.3,12.9,0.3c0.7-7,1.1-153.2,0.1-159.1c-0.9-5,0.1-0.5-1.1-3.3l-11.8-32.1
		c-1.9-5.5-1.7-6.7-5.4-10.5c-5.2-5.4-10.9-11.3-16.3-16.3c-0.6-1.3-0.9-1.4-2.4-2.6c-3.2-3.7-6.4-7-9.9-10.5
		c-3.9-3.8-7.2-4.3-13.5-6.3c-7-2.3-24.8-9-31.5-9.3L974.7,992.4L974.7,992.4z"/>
	<path class="st13" d="M335,1359.6l0.3,40l104.4,0.1l0.2,12.7l16-6.2c-3.9,3.8-5,0.8-9.1,5.4c9.6,0.4,19.6,0.1,29.3,0.1
		c28.7,0,17.9-3.2,26.9-3.3l0-21l-37,14.8c2.9-1.7,5.5-1.5,7.4-4.6l-0.6-39l-106.2-0.5l-0.1-8.6c-1.6,1.7-2.5,3.6-1.3,8.4l0-8.1
		c-6.1,1-10.2,2.8-15.8,4.5l-12.2,4.1C334.6,1359.5,336.7,1358.3,335,1359.6L335,1359.6z"/>
	<path class="st3" d="M1548.6,973.4c-9.1,3.8-75.4,30.7-78.5,33.1c10.1,1,74.6,0.3,89.9,0.3c10.2,0,122.8-45.8,149.6-53.8
		c-11-1.7-144.9-0.5-161-0.5L1548.6,973.4z"/>
	<path class="st10" d="M212,1019.3c2.7-6.2,1.1-22.2,1.1-29.8c0-5,0-10,0-15c0-3.9-1.8-12,1.9-14c-1.1-0.8-0.8-0.8-2.8-1.3
		c-1.4-0.4-1.6-0.3-3-0.4c-13.8-0.9-89.3,0.1-92,0.8l1.4,61.5c0.2,0.1,1.2,0.6,1.5,0.8c1.9,0.8,2.6,1,4.5,1.6
		c-1.1-1.9-0.8-2.2-4.1-3.9c13.4-1.6,32.3,0.2,45.8,0.2C180.2,1019.9,197,1019.2,212,1019.3L212,1019.3z"/>
	<path class="st0" d="M730.5,1170.9c-24.7,17.1-18.9,68.1-18.9,96.4h65.7l-0.2-50.8c-2.6,0-34.4,0.2-47.1-0.1
		c-2.8-0.1,0.2-1.1-0.8-1.1c38.6-1.1,47.7,1.9,47.2-23.9S754.6,1171,730.5,1170.9L730.5,1170.9z"/>
	<path class="st10" d="M296.2,1401.5c4.5,3.8,32.9,2,38.6,2l-43.8-0.6v35.5l141.4,0l-0.2-23.2c4,2.7,2.8,2.1,7.9,2.2
		c-1.8-4.9,0.3-0.9-2-2.9c-4.2-3.7-1.4-0.4-1.4-0.1c4.5-0.5,3.8-3.6,3.2-13.1c-12.9,2.5-5.3,2.1-6.8-1.7c-29.6-1.3-69.6,0.2-102-0.2
		l-26-0.1c-0.4,0-3.9,0-4.1,0c-2.1,0.3,0.3-0.3-2,0.5C296.3,1400.8,298.1,1399.9,296.2,1401.5L296.2,1401.5z"/>
	<path class="st3" d="M974.4,980.5c6.7,0.3,24.5,7,31.5,9.3c6.3,2,9.7,2.5,13.5,6.3c3.5,3.4,6.7,6.7,9.9,10.5
		c3.9-0.9,3.8-3.1,6.7-6.1c3.2-3.3,3.6-4.1,6-7l30.5-34.4c1.9-2.1,3-4.4,5-6.5l-163.4,0.1l-21.2,54.1c7.4,0.1,4.7,1.7,10.4-11.8
		c1.7-4.1,4.1-11,6.5-14.6L974.4,980.5L974.4,980.5z"/>
	<path class="st5" d="M1077.8,789.2c-3.3,1.8-4.7,5.3-7,9.3l-41.7,70.7l1.4,2.3c1.8,4.2,0.7,50.9,0.7,56l-117.4,0.1
		c6.4,2.9,146.1,0.7,166.2,0.5l0-138.5C1078.6,788.7,1080,788.4,1077.8,789.2L1077.8,789.2z"/>
	<path class="st11" d="M212,1019.3l56.4,30.8c3.4,1.8,6.1,3.6,9.5,5.4l9.9,6.5l-31.7,0c-1.5,0-3.8-0.3-5-0.3c-7.1-0.1-1.9-2.6-6,1.5
		c11.9-1.2,35.6,0.8,45.6-1l0-53.1c4,0,3.8,0.6,6.6-1c-3.9,0-8.7,3-17.5-5.3c-1.6-1.5-0.5-0.4-1.3-1.6c-2.3-3.8-47.2-31.5-50.8-33.6
		l-3.7-2.3c-3.1-2.1-5.7-4.9-9-4.9c-3.6,2-1.9,10.1-1.9,14c0,5,0,10,0,15C213.2,997.1,214.7,1013.1,212,1019.3L212,1019.3z"/>
	<path class="st5" d="M1105.5,671l-0.5-9.4l20,0.2c0.1-0.2,0.3-0.5,0.3-0.6c0.1-0.1,0.4-0.5,0.4-0.6c1.7-2,9.4-0.9,12.1-0.9
		l-0.1-121.2c0-4.9,0.1-5.6,1.8-7.8c-3.8-2.4-29.7-1.2-34-1.2l0.2-7.2l-1.3-0.3c-0.4,24.8,0.2,50.5,0.2,75.5c0,12.7,0,25.3,0,38
		C1104.7,641.2,1103.5,669,1105.5,671L1105.5,671z"/>
	<path class="st14" d="M978.6,1210.7l43.8,0.2l0-129.7c-4.9-1.6-21.4-1.1-27.1-0.4c15.5,19.5,16.9,46.2,2.1,63.2
		c-18.6,21.5-19.1,6.8-18.9,23.5C978.8,1181.8,978.6,1196.3,978.6,1210.7L978.6,1210.7z"/>
	<polygon class="st0" points="712.8,1043.7 785.1,1043.7 785.4,1037.5 785.4,1012.5 785.3,990 712.9,989.7 	"/>
	<polygon class="st10" points="1295.1,928.2 1470.8,928.4 1471.1,906.7 1295.5,906.5 	"/>
	<polygon class="st1" points="903.3,223 964.6,223.2 977.2,168.6 913.1,168.5 	"/>
	<polygon class="st1" points="711.7,221 777.3,221 779,167 713.8,167.2 	"/>
	<path class="st13" d="M691.2,773.9c-1.8-7.5-1.5-18.2-2.5-26.5c-1.1-8.2-0.9-17.8-2.5-26.4l-67.3-0.2l8.3,52.5L691.2,773.9
		L691.2,773.9z"/>
	<path class="st15" d="M731.3,1174.1c0.2,17.7,16.8,10.5,16.8,18.9c0,8.5-16.9,1.7-16.8,19.4c33.3-0.9,40.2,1.7,39.8-20.7
		C770.6,1169.4,752.1,1174.2,731.3,1174.1L731.3,1174.1z"/>
	<path class="st3" d="M712.3,987c6,2,64.8,1,75.8,0.5c0,6.3,0.8,13.3-0.7,19.3l9.3-0.5l2.1-53.7l-99.2,0.5L712.3,987L712.3,987z"/>
	<path class="st16" d="M1695.7,1779.4c0.2,0.1,0.5-0.1,0.5,0.1c0,0.2,0.4,0,0.5,0c4.9-0.1-2.7-3.5,1.1-0.1l-2.4,17.6l-75.2,0
		l-2.5-16.8c6,3.4,1.1-0.4,3.4,7.2c4.1,0.6-1.8-3.2,2.6-0.5c2.8,1.7,1.8,5.1,18.4,3.7c2.5-0.2-0.5,0.2,1.8-0.2
		c4.7-0.9,6.2-6.3,5.9-7.7l-1.6-2.5c-0.1-0.1-0.4-0.4-0.6-0.6l20.1,0c-1.3,1.1-3.1,1-1.9,4.9c0.5,1.8,2.5,4.3,3.2,6
		c9.6,0.1,15.2,1.4,20.7-1.7l2.3-1.2c0.1,0,0.4-0.1,0.6-0.1c0.1,0,0.5-0.1,0.6-0.1l1.1,0c0.7-2.4,2.2-4.6,1.5-7.4
		c-0.9-4-2.4-3.5-4.8-5.9c-8.6,6.2-21.5,4-33.9,4c-6.4,0-12.7,0-19.1,0.1c-4.8,0-12.5-0.4-13.9-5.9l-3,5.1c-0.7,0.7-1.5,1.9-1.9,2.4
		c-1.5-10.8-4.4-20.6-2.2-31.6c13-12.2,35.1-17.8,35.2-18.2c0.1-0.2,0-0.1-0.1-0.1c-1.9-0.1-27.1,6-34.7,16.6
		c-0.4,0.5-1.5,1.7-1.6,2.3c-0.2,0.7-0.8,2.3-0.9,10.6c-0.1,7.3,2.5,32.8,4.9,38.4c11.5,1.9,42.5-2.2,50.1,1.9
		c7.3,3.9,26.9,19.4,33.2,20c10.4,1.1,98.1,1.1,105.6-0.5c-6.6-3.9-38.7-21.1-44.6-21.4c-21-1.2-46.2,0-67.7,0
		c1.9-11,8.4-43.9,0.9-54.1c-0.1-0.1-0.2-0.7-0.3-0.8c-8.9-10.4-43.1-13.2-44.7-13l0.3,0.1l-0.1,0.2c0.1,0.5,24.8,2.8,44.3,13
		c3.3,12.3,4.1,10.5,1.4,22.5c-0.5,2.3-0.3,2.2-0.6,4.5C1697.3,1773.3,1697,1776.1,1695.7,1779.4L1695.7,1779.4z"/>
	<path class="st0" d="M1766.5,947.1c16-1.1,44.4-19.4,64.4-19c9.1,0.2,18.6,0.1,27.7,0l0.2-27.3c-0.4-2.3-0.2-1.2-0.8-2l-91.7,0.3
		L1766.5,947.1L1766.5,947.1z"/>
	<path class="st17" d="M973.4,995c0.2,3.8-2.7,9.2-4.1,12.4c-1.3,3-3.2,9.7-5.8,11.3c2,2.9,16.1,5.9,20.7,7.6
		c5.4,1.9,24.7,22.7,29.1,27.9c2.2,2.6,7.3,16,7.5,19.9l1.8,1.8c0.1,0.1,0.3,0.4,0.4,0.5c1.5,1.5-0.4,0.6,1.1,1.1
		c5.2-1.7,9-2.8,14.7-4.5c4.8-1.5,10.4-2.7,14.1-4.5l-12.5-34.4c-0.7-0.9-3.8-3.7-5.1-5.1l-19-20c-5.9-5.3-1.7-4.1-12-7.2l-29.8-9.4
		L973.4,995L973.4,995z"/>
	<path class="st5" d="M1404.3,1008.7l0.3,14.2c3.2,0.6,3.4-0.2,6.4-1.4c0.3,1.1-2.4,1.6,1,2.4c9.4,2,25.7-6.2,35-10.2
		c10.9-4.6,21.8-8.9,32.5-13.5l56.7-23.3c3.1-1.3,6.1-2.1,8.6-4.5l-20-0.2c3.8-2.7,1.5-8.5,0.6-19L1404.3,1008.7L1404.3,1008.7z"/>
	<path class="st0" d="M1650.8,1413.3l72.2,0c1-5.7,0.5-11.9,0.5-17.8c0-3,0.1-6.1,0.1-9.1c0-1,0-3-0.3-3.9c-0.6-2.4-0.5-1.9-1.9-3.4
		c-7.7,0.5-28.3-3.4-37.2-4.7c-11.3-1.6-26.2-4.6-37.3-5.1v43.2L1650.8,1413.3L1650.8,1413.3z"/>
	<path class="st1" d="M1745.4,607c14.9,0,29.8-0.1,44.6,0c11.5,0.1,17.7-6.6,30.1-14.4c8.9-5.6,18-11.4,26.8-17.2
		c5.5-3.6,24.4-14.8,27-17.9l-45-0.1c-9.6,0-9-0.8-15.6,3.6c-7.9,5.3-15.1,10.2-22.8,15.2L1745.4,607L1745.4,607z"/>
	<path class="st1" d="M816.7,1451.9h140.9c-1.4-3.9-3.9-7.3-6.2-10.8c-1.5-2.3-4.8-8.5-7.3-9.1H817.6L816.7,1451.9L816.7,1451.9z"/>
	<path class="st14" d="M950.5,1064.3l11.1,0l0.1-44l-57.6,0.4c0,8.2-0.1,16.6,0,24.8c0.1,5.1,1.3,6.4-0.7,10.2
		c-1.7,3.3-3.1,4.7-3.3,8.7L950.5,1064.3L950.5,1064.3z"/>
	<g id="_1972604014896">
		<path class="st18" d="M764.4,1344.5c4,0,7.2,3.2,7.2,7.2c0,4-3.2,7.2-7.2,7.2c-4,0-7.2-3.2-7.2-7.2
			C757.2,1347.7,760.4,1344.5,764.4,1344.5z"/>
		<line class="st18" x1="757.1" y1="1344.5" x2="771.6" y2="1358.9"/>
		<line class="st18" x1="771.6" y1="1344.5" x2="757" y2="1358.8"/>
	</g>
	<polygon class="st9" points="648.5,1440.2 682.7,1439.7 683.1,1372.5 649.1,1372.5 648.1,1372.5 	"/>
	<path class="st0" d="M1642.5,1438c2.7,1.9,109,38.5,116.3,39.7l0-20.1l-116.3-37.7L1642.5,1438L1642.5,1438z"/>
	<polygon class="st19" points="718.7,940.4 719.3,868.5 699.3,786.5 698.2,940.3 	"/>
	<path class="st1" d="M1359.9,1819.4l108.8-0.1c-2.8-3.4-17-13.1-22.3-17.3c-2.8-2.2-4.4-4.3-9.3-4.3l-95.6,0.1
		C1343.4,1802.1,1356.9,1814.3,1359.9,1819.4L1359.9,1819.4z"/>
	<path class="st0" d="M473.4,1397.7c4.8-1.6,10.4-4.1,15-6c2.7-1.1,5.2-2.2,7.8-3.3c1.1-0.4,2.3-0.7,3.5-1.1
		c2.4-0.8,1.4,1.1,2.7-1.8l0-36.1l-135.8,0.2l0.1,8.6l106.2,0.5L473.4,1397.7L473.4,1397.7z"/>
	<path class="st14" d="M964.4,1064.5c11.8,3.8,14.3,2.8,23.8,10c5,3.8,5.9,3.5,14,3.5c6-0.1,12,0,18,0l0.8-3.8
		c-3.3-4.2-4.1-14.1-8-19.3c-3.2-4.2-9.3-9.7-13.2-13.8c-11.2-11.6-13.1-15.7-35.8-19.8L964.4,1064.5L964.4,1064.5z"/>
	<polygon class="st18" points="714.3,1295.5 782.1,1295.5 782.1,1370.4 714.3,1370.4 	"/>
	<g id="_1971419868864">
		<path class="st18" d="M764.4,1306.2c4,0,7.2,3.2,7.2,7.2c0,4-3.2,7.2-7.2,7.2c-4,0-7.2-3.2-7.2-7.2
			C757.2,1309.4,760.4,1306.2,764.4,1306.2z"/>
		<line class="st18" x1="757.1" y1="1306.2" x2="771.6" y2="1320.6"/>
		<line class="st18" x1="771.6" y1="1306.2" x2="757" y2="1320.5"/>
	</g>
	<polygon class="st20" points="712,1303 764.3,1303 764.3,1365.1 712,1365.1 	"/>
	<path class="st1" d="M1174,1451.8l64.6-0.1c-2.9-3.5-12-8.1-16.2-10.6c-4.3-2.6-12.7-9-18.4-9l-92.4,0c2.2,2.9,20.8,15.6,23.4,17.4
		C1142.2,1454.2,1163.6,1451.8,1174,1451.8L1174,1451.8z"/>
	<path class="st3" d="M1407.7,772.8c20.4,0.3,14,1.6,39.6-19l97.4-78.9c-25.8-0.5-17.6-1.5-32.8,10.5l-96.7,80.3
		c-1.6,1.2-2.3,2-3.7,3.2L1407.7,772.8L1407.7,772.8z"/>
	<path class="st0" d="M1548.6,1456.8c27.8,0,68.4,0.8,94.7-0.2c-0.2-0.2-0.6-0.7-0.7-0.5c-0.1,0.2-0.5-0.4-0.7-0.4l-93.3-34.4
		L1548.6,1456.8z"/>
	<path class="st12" d="M963.6,1018.7c2.6-1.6,4.5-8.2,5.8-11.3c1.4-3.2,4.3-8.6,4.1-12.4c-1.7-3.2-1.5-2.2-6.3-2.2l-56,0.2
		c-8.3,16.3-6.7,16-6.7,25.9L963.6,1018.7z"/>
	<polygon class="st9" points="623,1434.6 646.7,1433.9 646.8,1372.6 622.7,1372.2 	"/>
	<path class="st9" d="M590.4,1418.9c1.8,3.1,9.4,1.7,13.7,1.7c4.2,0,12.5,1.2,15.4-0.7c2.8-4.3,1.1-39,1.1-47.2l-30.6-0.1
		L590.4,1418.9L590.4,1418.9z"/>
	<polygon class="st1" points="1548.6,605.2 1604.6,557.9 1548.5,557.5 	"/>
	<polygon class="st0" points="335.3,1399.6 335,1359.6 296.4,1371.6 296.4,1399 	"/>
	<path class="st0" d="M664.2,920.3l-44.1,0.9c-2.5-0.2-5.2-0.4-7.8-0.5c-5.4-0.2-5,0.5-6.1,1.6c1.2,5.9-1,12.6-0.9,17.9
		c10.9,0.4,19.6-0.8,29.8-0.8c10.6,0.1,20.3,1.4,30.8,0.7C666.5,931.4,665.4,927.7,664.2,920.3L664.2,920.3z"/>
	<polygon class="st0" points="433.7,1046.5 434,1051.6 484,1051.5 472.9,1032.7 469.1,1032.5 433.6,1032.5 	"/>
	<polygon class="st0" points="252.6,1373.9 284.2,1373.8 295.4,1370 295.3,1350.3 253.1,1362.5 	"/>
	<polygon class="st21" points="707.3,1343.5 759.1,1343.5 759.1,1324.9 707.3,1324.9 	"/>
	<polygon class="st1" points="113.9,1137.1 175.1,1156.5 173.9,1225.6 113.9,1231.9 	"/>
	<polygon class="st1" points="468.2,522.6 567,522.3 544.7,422.7 438.7,422.9 	"/>
	<polygon class="st18" points="566.9,1371.4 682.7,1371.4 682.7,1062.4 566.9,1062.4 	"/>
	<polygon class="st18" points="577.4,1370.3 682.7,1370.3 682.7,1071.1 577.4,1071.1 	"/>
	<line class="st18" x1="566.9" y1="1062.4" x2="577.4" y2="1071.1"/>
	<polygon class="st22" points="706,970 744.5,970 744.5,1267.3 706,1267.3 	"/>
	<polygon class="st23" points="699.1,967.2 737.6,967.2 737.6,1264.4 699.1,1264.4 	"/>
	<path class="st18" d="M737.6,1264.4c6.9,2.9,6.9,2.9,6.9,2.9H706l-6.9-2.9"/>
	<line class="st18" x1="737.6" y1="967.2" x2="744.5" y2="970"/>
	<polygon class="st24" points="768.2,1216.3 767.3,1216.3 767.3,1267.3 768.2,1267.3 	"/>
	<polygon class="st24" points="761.1,1216.3 760.2,1216.3 760.2,1267.3 761.1,1267.3 	"/>
	<polygon class="st24" points="764.5,1216.3 763.6,1216.3 763.6,1267.3 764.5,1267.3 	"/>
	<polygon class="st24" points="757.4,1216.3 756.5,1216.3 756.5,1267.3 757.4,1267.3 	"/>
	<polygon class="st24" points="750.4,1216.3 749.4,1216.3 749.4,1267.3 750.4,1267.3 	"/>
	<polygon class="st24" points="753.8,1216.3 752.8,1216.3 752.8,1267.3 753.8,1267.3 	"/>
	<polygon class="st24" points="772.5,1216.3 771.6,1216.3 771.6,1267.3 772.5,1267.3 	"/>
	<path class="st25" d="M1409,1772.5c2.1-5.1,8.7-63.3-18.5-63.3l0,0c-25.7,0-27.3,49.6-20.8,62.6L1409,1772.5L1409,1772.5z"/>
	<polyline class="st18" points="1766.3,899 1722.5,928.5 1723.4,963.2 	"/>
	<path class="st18" d="M1407.8,1766.8c1.9-4.3,7.9-53.7-16.8-53.7l0,0c-23.4,0-24.8,42-18.9,53.1L1407.8,1766.8L1407.8,1766.8z"/>
	<path class="st26" d="M1388.6,1709.3c-42.6,5.7-47.8,13.3-41.2,56.6c7.3,3.7,17.6,8.9,24.9,12.6c8.3-1,24.7-0.8,36.7,0.7
		c9.3,1.2,5.3,17.4,3.8,17c-15.2-3.9-24.5-4.3-42.6,0.2c-1.8,0.4-18.1-11.7-25.9-17.2c-1.8-1.3,2.7-5.7,2.3-12.9
		C1343.5,1717.7,1346.6,1714.9,1388.6,1709.3L1388.6,1709.3z"/>
	<path class="st25" d="M1370.7,1780.4c12.8-2.2,26.1-2.2,39.7,0c1.8,0.3,3.4,1.7,3.4,3.8v7.7c0,2.1-1.6,4.4-3.4,3.8
		c-13.2-5-26.5-5-39.7,0c-1.8,0.7-3.4-1.7-3.4-3.8v-7.7C1367.3,1782.1,1368.9,1780.7,1370.7,1780.4z"/>
	<path class="st18" d="M1372.9,1781.1c11.4-1.8,23.2-1.7,35.3,0c1.6,0.2,3,1.4,3,3v6.1c0,1.7-1.4,3.6-3,3c-11.8-4-23.6-4-35.3,0
		c-1.6,0.5-3-1.4-3-3v-6.1C1369.9,1782.4,1371.3,1781.3,1372.9,1781.1z"/>
	<polygon class="st18" points="1745.9,1080.7 1834,1080.7 1834,1306.8 1745.9,1306.8 	"/>
</g>
</svg>
