<?xml version="1.0" standalone="no"?>
<!DOCTYPE svg PUBLIC "-//W3C//DTD SVG 20010904//EN"
 "http://www.w3.org/TR/2001/REC-SVG-20010904/DTD/svg10.dtd">
<svg version="1.0" xmlns="http://www.w3.org/2000/svg"
 width="205.000000pt" height="205.000000pt" viewBox="0 0 205.000000 205.000000"
 preserveAspectRatio="xMidYMid meet">
<metadata>
Created by potrace 1.11, written by Peter Selinger 2001-2013
</metadata>
<g transform="translate(0.000000,205.000000) scale(0.100000,-0.100000)"
fill="#000000" stroke="none">
<path d="M981 1880 c-13 -11 -21 -20 -19 -20 2 0 -53 -57 -123 -127 -70 -70
-125 -131 -123 -135 3 -5 0 -7 -8 -6 -7 2 -12 -3 -10 -10 1 -6 -2 -11 -6 -10
-4 2 -32 -22 -61 -52 -30 -30 -140 -143 -245 -251 -293 -300 -346 -356 -346
-366 0 -5 6 -18 14 -28 12 -16 26 -18 110 -16 l96 2 1 -28 c0 -15 1 -170 1
-343 0 -194 4 -320 10 -327 8 -10 82 -13 310 -13 l299 0 -29 53 c-16 28 -64
117 -105 197 -141 269 -149 282 -185 294 -46 16 -99 61 -121 104 -33 65 -12
197 36 225 7 5 11 13 7 18 -3 5 -2 8 3 7 4 -1 26 7 48 19 82 43 191 16 249
-60 26 -34 35 -60 40 -120 5 -48 64 -165 88 -173 10 -3 17 -10 15 -16 -1 -6 4
-13 10 -15 10 -4 12 44 12 212 -2 211 -2 217 -23 225 -50 19 -97 94 -101 162
-5 83 39 158 114 194 109 52 247 -11 279 -128 11 -42 8 -98 -8 -128 -6 -11 -8
-20 -5 -20 12 0 -68 -80 -85 -85 -16 -5 -18 -23 -17 -196 l0 -190 23 22 c13
13 24 28 24 34 0 6 18 36 40 65 22 29 40 63 40 74 0 26 39 106 51 106 6 0 7 5
3 12 -4 6 -3 8 4 4 6 -3 14 -1 17 4 7 11 42 28 75 37 34 10 88 4 125 -12 22
-10 44 -17 48 -16 5 1 6 -3 2 -9 -3 -5 2 -10 11 -10 10 0 15 -3 12 -6 -4 -3 4
-21 17 -40 23 -33 39 -96 33 -124 -5 -22 142 -23 158 -2 10 13 19 14 69 4 89
-18 132 -16 145 8 6 11 7 26 3 34 -19 32 -127 144 -135 140 -5 -3 -7 -2 -6 3
2 4 -15 26 -37 48 l-40 40 1 170 c0 94 -3 178 -8 188 -8 15 -22 17 -102 16
-51 0 -99 -5 -106 -9 -7 -5 -13 -30 -14 -59 -2 -58 -10 -71 -26 -42 -6 12 -17
21 -25 21 -8 0 -14 4 -13 9 4 12 -95 107 -107 103 -5 -2 -7 -1 -3 3 4 4 2 13
-5 20 -147 156 -335 335 -351 335 -12 -1 -32 -10 -45 -20z"/>
<path d="M988 1362 c-32 -22 -38 -32 -38 -68 0 -66 78 -97 125 -49 30 29 32
64 5 97 -25 32 -63 40 -92 20z"/>
<path d="M590 957 c-36 -18 -53 -58 -39 -93 19 -52 42 -50 104 7 16 16 34 29
38 29 5 0 0 14 -10 30 -9 17 -23 30 -29 30 -7 0 -18 2 -26 5 -7 3 -24 -1 -38
-8z"/>
<path d="M1406 955 c-3 -8 0 -15 7 -15 11 0 24 -24 41 -72 3 -10 14 -18 24
-18 18 0 22 10 23 54 0 40 -82 84 -95 51z"/>
<path d="M1185 745 c-26 -55 -69 -145 -95 -200 -26 -55 -66 -143 -90 -195 -54
-118 -66 -133 -78 -99 -6 13 -39 86 -76 163 -36 76 -66 140 -66 142 0 2 -20
44 -44 94 -64 131 -64 126 -14 125 24 0 48 -3 53 -7 6 -3 51 -92 100 -198 85
-183 89 -190 102 -166 12 23 9 34 -36 128 -26 57 -67 144 -90 194 l-42 90 -97
-1 c-53 -1 -96 -6 -95 -11 1 -5 31 -72 68 -149 37 -77 89 -187 115 -245 26
-58 68 -148 93 -199 l45 -95 38 80 c128 273 191 408 219 472 31 70 33 72 47
50 l15 -22 11 21 c10 17 7 31 -12 75 l-24 53 -47 -100z"/>
<path d="M1382 828 c-6 -6 -12 -15 -12 -20 0 -4 -23 -56 -51 -115 -72 -151
-129 -272 -180 -383 -42 -89 -44 -93 -53 -67 -12 34 -24 34 -32 1 -5 -19 1
-42 19 -78 24 -50 25 -50 35 -26 5 14 36 79 67 145 64 134 125 264 175 373 18
39 36 72 40 72 3 0 16 -21 27 -47 57 -128 255 -549 262 -556 4 -4 15 12 26 35
10 24 42 93 70 153 29 61 61 130 73 155 11 25 52 111 90 192 39 81 68 149 64
151 -4 2 -47 3 -97 3 l-90 -1 -32 -65 c-48 -96 -140 -293 -147 -316 -3 -11 0
-28 7 -38 11 -15 20 -1 77 121 129 275 119 259 168 257 23 -1 44 -2 47 -3 4
-1 -22 -61 -100 -226 -26 -55 -62 -134 -82 -175 -50 -109 -67 -140 -75 -140
-5 0 -8 4 -8 9 0 5 -24 60 -54 122 -29 63 -66 141 -81 174 -15 33 -51 110 -80
170 -28 61 -54 116 -56 123 -3 10 -7 10 -17 0z"/>
<path d="M1346 556 c-6 -24 17 -80 144 -351 l42 -90 24 54 c26 58 29 78 14
101 -7 11 -11 9 -19 -13 -10 -26 -31 -38 -31 -17 0 5 -25 62 -56 127 -30 65
-65 139 -76 165 -23 54 -33 59 -42 24z"/>
</g>
</svg>
